<svg id="Layer_1" data-name="Layer 1" xmlns="http://www.w3.org/2000/svg" xmlns:xlink="http://www.w3.org/1999/xlink" viewBox="0 0 352.78803 363.26928"><defs><style>.cls-1{fill:url(#linear-gradient);}.cls-2{fill:#fefefe;}.cls-3{fill:#1f2e5e;}.cls-4{fill:#202f5f;}.cls-5{fill:#203060;}.cls-6{fill:#6f94cc;}.cls-7{fill:#223b72;}.cls-8{fill:#cddcf1;}.cls-9{fill:#010202;}.cls-10{fill:#3360ad;}.cls-11{fill:#2d589f;}.cls-12{fill:#ccdcf1;}.cls-13{fill:#6e93cc;}.cls-14{fill:#4976ba;}.cls-15{fill:#5880c1;}.cls-16{fill:#859fcd;}.cls-17{fill:#698fc9;}.cls-18{fill:#c0d4ee;}.cls-19{fill:#bfd3ee;}.cls-20{fill:#eaeaea;}.cls-21{fill:#d1d1d1;}.cls-22{fill:#203061;}.cls-23{fill:#3b67b1;}.cls-24{fill:#fff;}.cls-25{fill:#010101;}.cls-26{fill:#486bb2;}.cls-27{fill:#486bb3;}.cls-28{fill:#131025;}</style><linearGradient id="linear-gradient" x1="152.29384" y1="237.51995" x2="364.19185" y2="89.19134" gradientUnits="userSpaceOnUse"><stop offset="0" stop-color="#000021"/><stop offset="1" stop-color="#2b3990"/></linearGradient></defs><path class="cls-1" d="M328.64392,9.0886V224.25025a107.128,107.128,0,0,0-27.23171,2.65658c-15.00439,3.37914-30.03,1.67895-44.86431-1.89152a195.98013,195.98013,0,0,1-23.895-7.87054c-13.94881-5.32025-28.266-7.67222-43.22786-4.77475-10.4138,2.019-20.35292-.758-30.09371-4.15843a104.07275,104.07275,0,0,1-15.03981-6.76541c-3.03911-1.49481-3.25163-4.86685-4.81726-7.33928-.70842-1.11218-1.38852-2.38737-.69423-3.82545,1.97647-11.24263,5.35566-21.954,12.12107-31.33349a30.0784,30.0784,0,0,1,14.85557-11.09385c11.56143-4.03092,23.32834-7.50925,34.45051-12.71617.96349-.4534,1.90566-.94926,2.862-1.40266a27.577,27.577,0,0,0,15.79069-19.54535,114.53907,114.53907,0,0,1,6.10659-19.29738,31.255,31.255,0,0,1,17.85931-17.53342,129.30466,129.30466,0,0,0,36.56869-22.124,39.48856,39.48856,0,0,0,9.38658-11.68185,102.93178,102.93178,0,0,1,17.29962-23.1937c5.40526-5.632,12.29113-8.15393,19.43908-10.3642A28.12976,28.12976,0,0,0,328.64392,9.0886Z"/><path class="cls-2" d="M28.27009,279.72565c.0077.709-.48809,1.03012-1.18426,1.03525-.42385,0-.84772,0-1.27415-.00258-.42387,0-.8503.01542-1.27159-.00255a.99581.99581,0,0,1-1.08149-1.01214.97873.97873,0,0,1,1.06093-1.02755c.84774-.02569,1.698-.00771,2.54833-.00771C27.75887,278.7058,28.265,279.01664,28.27009,279.72565Z"/><path class="cls-2" d="M171.57972,279.77959a.98335.98335,0,0,1-1.00187.96846c-.34166.03083-.68588.01285-1.02755.01285q-68.31141,0-136.61772-.00513c-.822,0-1.97289.2466-1.996-.98131-.02312-1.34609,1.18937-1.06095,2.03969-1.06095q23.69012-.01156,47.38024-.00514h1.49c-.91966-3.50907.55744-5.39206,4.0845-5.39463,4.11019,0,8.21782-.01284,12.328.01541.68847.00515.94791-.131.94791-.894q-.03852-18.10282-.02054-36.20567a2.03,2.03,0,0,0-.07707-.37506,1.59814,1.59814,0,0,0-.38019.07706c-2.54832,1.305-2.54575,1.305-3.93809-1.1226-.55229-.96332-1.18937-1.88554-1.64921-2.8874-.40331-.87341-.84-.83489-1.567-.43157-1.67491.92993-3.38577,1.79306-5.08124,2.6819-.41615.21835-.89139.58057-1.31012.40074-1.22021-.52661-2.109.21579-3.07237.6602-3.09292,1.43087-6.17556,2.88741-9.26335,4.32855-1.43086.67048-1.80078.60112-2.54062-.81947-.429-.822-.8169-.92479-1.51305-.37505a6.44491,6.44491,0,0,1-1.10463.63965c-.64992.3288-1.18682.60625-.62936,1.51307a1.06158,1.06158,0,0,1-.51892,1.51819q-1.77636,1.01729-3.545,2.0474a1.161,1.161,0,0,1-1.75454-.45212c-1.9318-3.31643-3.83018-6.65339-5.74656-9.98008a1.14519,1.14519,0,0,1,.43671-1.74426c1.16883-.70644,2.36079-1.37178,3.545-2.05252a1.12141,1.12141,0,0,1,1.73141.465c.34681.68074.70644.54975,1.18169.21322.20808-.149.44441-.25176.6679-.3802,1.51307-.88112,1.52591-.88626.81947-2.50978-.3879-.88626-.03339-1.42316.7013-1.91895,3.2188-2.1784,6.41705-4.39019,9.62557-6.58145.48808-.33395.97874-.52919.64222-1.3615-.32883-.81177.35963-1.29215,1.007-1.70316q7.94552-5.03628,15.873-10.09566c2.87457-1.83932,5.726-3.71717,8.59288-5.56931.49322-.31856.989-.46754.73214-1.33069-.22606-.76038.614-1.13287,1.16883-1.513q8.91654-6.14219,17.84851-12.26379c.52919-.3648.99673-.64222.98131-1.46169-.01541-.76039,4.5315-3.39606,5.26619-3.16485.68588.21834.9402.85286,1.21764,1.41545a3.19487,3.19487,0,0,0,2.76668,1.94976,14.38574,14.38574,0,0,1,11.23881,19.4926,3.32723,3.32723,0,0,0,.30056,3.37807c1.043,1.65435.9325,1.92151-.745,2.88741-.8503.49065-1.70829.9659-2.55089,1.46681-.65506.39048-1.27415.69875-1.978.06937-.43928-.39047-.79378.08221-1.14315.24147q-9.56777,4.42359-19.12011,8.89344c-1.11489.52148-2.16042,1.23819-3.50651.30826.71671,1.26131,1.43856,2.52264,2.14757,3.79166.69874,1.24847.59341,1.61581-.63707,2.35822-.21835.131-.43414.26973-.65506.39817a7.64362,7.64362,0,0,0-2.38649,1.44114c-.62424.822.56258,1.567.70644,2.44042a6.90966,6.90966,0,0,1-.05394,3.54761,8.60167,8.60167,0,0,0-.40332,3.14175c0,11.34155.02312,22.68055-.03082,34.02213-.00771,1.22791.375,1.43086,1.47967,1.41545,4.19239-.06167,8.38736-.0257,12.58233-.0257,3.52963.00257,5.00158,1.883,4.11019,5.28674a2.78414,2.78414,0,0,0,1.33839.10019q19.25881.01155,38.52021.0077c.34167,0,.6859-.02056,1.025.00771A.99262.99262,0,0,1,171.57972,279.77959Z"/><path class="cls-2" d="M179.28633,279.67941a.984.984,0,0,1-1.01728,1.06864c-.46239.03854-.9325.00772-1.4.00772v-.01541a13.13271,13.13271,0,0,1-1.52591-.01286.95052.95052,0,0,1-.88112-.93763.9331.9331,0,0,1,.894-1.04553,28.54344,28.54344,0,0,1,2.9285-.02056A.96151.96151,0,0,1,179.28633,279.67941Z"/><path class="cls-2" d="M187.75589,279.76674c-.02311.70644-.53945,1.00187-1.22791.99416-.55231-.00513-1.10718,0-1.6595,0-.59341-.00258-1.18939.00514-1.78537-.00258-.69615-.01027-1.1791-.34422-1.16626-1.0558a.99083.99083,0,0,1,1.10461-.989c1.18939-.01284,2.37878-.01028,3.57074-.00257C187.28578,278.71608,187.779,279.05518,187.75589,279.76674Z"/><path class="cls-3" d="M171.57972,279.77959a.98335.98335,0,0,1-1.00187.96846c-.34166.03083-.68588.01285-1.02755.01285-45.54094,0-63.76787,0-109.30626-.00513-.822,0-1.97289.2466-1.996-.98131-.02313-1.34609,1.18937-1.06095,2.03968-1.06095,15.79342-.00771,4.27538-.00514,20.06879-.00514h1.49c-.91966-3.50907.55744-5.39206,4.0845-5.39463,4.11019,0,8.21782-.01284,12.328.01541.68847.00515.94791-.131.94791-.894q-.03852-18.10282-.02054-36.20567a2.03,2.03,0,0,0-.07707-.37506,1.59814,1.59814,0,0,0-.38019.07706c-2.54832,1.305-2.54575,1.305-3.93809-1.1226-.55229-.96332-1.18937-1.88554-1.64921-2.8874-.40331-.87341-.84-.83489-1.567-.43157-1.67491.92993-3.38577,1.79306-5.08124,2.6819-.41615.21835-.89139.58057-1.31012.40074-1.22021-.52661-2.109.21579-3.07237.6602-3.09292,1.43087-6.17556,2.88741-9.26335,4.32855-1.43086.67048-1.80078.60112-2.54062-.81947-.429-.822-.8169-.92479-1.51305-.37505a6.44491,6.44491,0,0,1-1.10463.63965c-.64992.3288-1.18682.60625-.62936,1.51307a1.06158,1.06158,0,0,1-.51892,1.51819q-1.77636,1.01729-3.545,2.0474a1.161,1.161,0,0,1-1.75454-.45212c-1.9318-3.31643-3.83018-6.65339-5.74656-9.98008a1.14519,1.14519,0,0,1,.43671-1.74426c1.16883-.70644,2.36079-1.37178,3.545-2.05252a1.12141,1.12141,0,0,1,1.73141.465c.34681.68074.70644.54975,1.18169.21322.20808-.149.44441-.25176.6679-.3802,1.51307-.88112,1.52591-.88626.81947-2.50978-.3879-.88626-.03339-1.42316.7013-1.91895,3.2188-2.1784,6.41705-4.39019,9.62557-6.58145.48808-.33395.97874-.52919.64222-1.3615-.32883-.81177.35963-1.29215,1.007-1.70316q7.94552-5.03628,15.873-10.09566c2.87457-1.83932,5.726-3.71717,8.59288-5.56931.49322-.31856.989-.46754.73214-1.33069-.22606-.76038.614-1.13287,1.16883-1.513q8.91654-6.14219,17.84851-12.26379c.52919-.3648.99673-.64222.98131-1.46169-.01541-.76039,4.5315-3.39606,5.26619-3.16485.68588.21834.9402.85286,1.21764,1.41545a3.19487,3.19487,0,0,0,2.76668,1.94976,14.38574,14.38574,0,0,1,11.23881,19.4926,3.32723,3.32723,0,0,0,.30056,3.37807c1.043,1.65435.9325,1.92151-.745,2.88741-.8503.49065-1.70829.9659-2.55089,1.46681-.65506.39048-1.27415.69875-1.978.06937-.43928-.39047-.79378.08221-1.14315.24147q-9.56777,4.42359-19.12011,8.89344c-1.11489.52148-2.16042,1.23819-3.50651.30826.71671,1.26131,1.43856,2.52264,2.14757,3.79166.69874,1.24847.59341,1.61581-.63707,2.35822-.21835.131-.43414.26973-.65506.39817a7.64362,7.64362,0,0,0-2.38649,1.44114c-.62424.822.56258,1.567.70644,2.44042a6.90966,6.90966,0,0,1-.05394,3.54761,8.60167,8.60167,0,0,0-.40332,3.14175c0,11.34155.02312,22.68055-.03082,34.02213-.00771,1.22791.375,1.43086,1.47967,1.41545,4.19239-.06167,8.38736-.0257,12.58233-.0257,3.52963.00257,5.00158,1.883,4.11019,5.28674a2.78414,2.78414,0,0,0,1.33839.10019q19.25881.01155,38.52021.0077c.34167,0,.6859-.02056,1.025.00771A.99262.99262,0,0,1,171.57972,279.77959Z"/><path class="cls-4" d="M187.75589,279.76674c-.02311.70644-.53945,1.00187-1.22791.99416-.55231-.00513-1.10718,0-1.6595,0-.59341-.00258-1.18939.00514-1.78537-.00258-.69615-.01027-1.1791-.34422-1.16626-1.0558a.99083.99083,0,0,1,1.10461-.989c1.18939-.01284,2.37878-.01028,3.57074-.00257C187.28578,278.71608,187.779,279.05518,187.75589,279.76674Z"/><path class="cls-5" d="M179.28633,279.67941a.984.984,0,0,1-1.01728,1.06864c-.46239.03854-.9325.00772-1.4.00772v-.01541a13.13271,13.13271,0,0,1-1.52591-.01286.95052.95052,0,0,1-.88112-.93763.9331.9331,0,0,1,.894-1.04553,28.54344,28.54344,0,0,1,2.9285-.02056A.96151.96151,0,0,1,179.28633,279.67941Z"/><path class="cls-6" d="M110.4885,212.1883c-2.37273-4.08785-4.733-8.183-7.132-12.25544-.35037-.59479-.20117-.87753.30473-1.22189q8.55714-5.82486,17.09741-11.67453c.80756-.33122.93176.41191,1.17926.82027,1.68391,2.77833,3.28544,5.60571,4.91431,8.41654,2.40052,4.14245,4.8626,8.24941,7.19846,12.42912.233.41692.70651.81179.30123,1.38049l-4.56451,2.12913c-4.6528,1.58751-9.44329,1.56841-14.26132,1.21815-1.146-.08331-2.29372-.13821-3.43134-.33069A2.15545,2.15545,0,0,1,110.4885,212.1883Z"/><path class="cls-6" d="M85.57685,223.74443q-2.24269-3.86976-4.48319-7.74079c-.22077-.38237-.59844-.73025.05686-1.14411q7.99554-5.04963,15.96319-10.14344a16.73722,16.73722,0,0,1,2.53542,3.95408q3.4263,5.775,6.77028,11.59972c.24709.42856.65637.8191.44917,1.39926l-5.08766,2.60491a27.70556,27.70556,0,0,1-9.98612.74531c-1.48164-.1435-2.97779-.129-4.4467-.413C86.6793,224.477,85.9829,224.41082,85.57685,223.74443Z"/><path class="cls-6" d="M109.699,249.75068c.00627,7.51906.00271,15.03816.03394,22.55712.00315.7583-.162,1.0465-.98445,1.02587q-3.3946-.08515-6.7925,0c-.82193.0206-.988-.2667-.9848-1.02551.03123-7.519.02757-15.03807.03379-22.55713.49162-.216.67354.23323.9422.45822,2.31537,1.939,4.49439,1.93912,6.80942.00032C109.02537,249.98441,109.20745,249.5357,109.699,249.75068Z"/><path class="cls-6" d="M105.69291,278.7069q-10.3238,0-20.64757-.001c-1.35118-.00042-1.98722-.54211-2.03332-1.71183a2.03209,2.03209,0,0,1,1.92933-2.13255c.16967-.01562.34177-.00606.51276-.00606q20.26286-.00031,40.52568-.0087a2.311,2.311,0,0,1,2.05289.80086,1.98131,1.98131,0,0,1,.22027,2.16573,1.56488,1.56488,0,0,1-1.656.90585C119.629,278.69817,112.66093,278.70687,105.69291,278.7069Z"/><path class="cls-7" d="M109.699,249.75068c-1.65839,1.75661-3.5442,2.77772-6.04288,1.93009a7.7761,7.7761,0,0,1-2.65109-1.92991,15.35084,15.35084,0,0,1-1.05129-6.97122c.02628-1.72936.00514-3.45943.00514-5.409,3.33364,2.97239,6.66763,3.14886,10.27276.53358,0,2.27063.04393,4.34188-.016,6.41013-.03779,1.3042.57963,2.56865.08306,3.91792C110.11105,248.74207,109.70221,249.17284,109.699,249.75068Z"/><path class="cls-6" d="M68.881,232.72815c-.94145-1.617-1.86173-3.24683-2.83564-4.844-.34739-.56969-.243-.86615.2954-1.22484,2.83176-1.88653,5.64015-3.80813,8.45666-5.71755,1.19394.167,1.35739,1.04324,1.38681,2.01194-1.33379.92456-2.92288,1.38456-4.25023,2.328-1.23455.8775-2.66369,1.50939-3.50249,2.93331,3.02885-.881,6.18818-1.45838,8.42894-4.01987.58449.00458.761.47666.99093.87634,1.27629,2.21825,2.53534,4.44639,3.81216,6.66438.26077.453.70173.91237.32017,1.51963l.01888.02054c-2.79362.91365-5.66453.66984-8.52022.52539-.80681-.04081-1.62191-.1008-2.42556-.2038C70.26889,233.49667,69.40129,233.52619,68.881,232.72815Z"/><path class="cls-8" d="M140.35039,207.85225c.06466.34264-.21086.4035-.41169.54686-2.16388,1.54462-2.16662,1.54965-3.47675-.72105-4.30648-7.46389-8.59154-14.94026-12.93792-22.38083-.5018-.859-.37041-1.17748.4474-1.62106,1.85622-1.00678,1.83293-1.04887,2.89177.78682q6.52159,11.3064,13.0434,22.61268C140.05567,207.33411,140.2027,207.59371,140.35039,207.85225Z"/><path class="cls-9" d="M139.79652,203.36446l-10.197-17.68343a12.61975,12.61975,0,0,1,8.96894,5.48457C141.07589,194.878,141.43465,198.87251,139.79652,203.36446Z"/><path class="cls-10" d="M110.4885,212.1883a5.99164,5.99164,0,0,0,3.19183.73107,48.01829,48.01829,0,0,0,15.46921-.69391,3.20656,3.20656,0,0,1,.63768-.0134c-3.44137,1.87863-7.07737,3.35236-10.59139,5.08057-1.301.63984-2.63125,1.21994-3.94255,1.83914-.42817.20218-.76212.28894-1.03878-.25214C113.05181,216.60565,111.54675,214.52144,110.4885,212.1883Z"/><path class="cls-11" d="M109.52826,227.58513c-.3017-.17481-.59061-.34958-.88614-.51234a6.76845,6.76845,0,0,0-9.83241,4.144,6.35172,6.35172,0,0,0-.15559,1.90073,1.30736,1.30736,0,0,1-.71059,1.23452c-.71234.4921-1.18287.46625-1.59893-.382a29.35515,29.35515,0,0,0-1.70536-3.003c-.39136-.60525-.239-.8693.34582-1.1675q7.63936-3.89516,15.255-7.83664c.701-.36354,1.0316-.18345,1.41483.45914,1.8257,3.06133,1.84333,3.051-1.31676,4.7367C110.07649,227.29833,109.81336,227.43511,109.52826,227.58513Z"/><path class="cls-10" d="M85.57685,223.74443a14.138,14.138,0,0,0,4.23663.77225,42.43182,42.43182,0,0,0,10.94435-.23516,7.13505,7.13505,0,0,1,1.023-.00741Q96.008,227.41733,90.23617,230.563c-.36237.19777-.68191.35474-.94769-.13895C88.081,228.18105,86.60406,226.08775,85.57685,223.74443Z"/><path class="cls-8" d="M87.87414,231.32756a8.45759,8.45759,0,0,1-1.83634,1.03586c-.4634.27786-.59183-.10733-.75781-.39474-2.66081-4.60722-5.34424-9.20169-7.96219-13.83316-.69326-1.22647.7877-1.08287,1.22214-1.59489.50337-.59327.76468-.08,1.0089.34359q3.98565,6.913,7.97715,13.82272C87.63222,230.891,87.73405,231.07754,87.87414,231.32756Z"/><path class="cls-12" d="M111.00694,219.41851c-1.62528.88822-1.62947.89063-2.51216-.639q-4.0502-7.01864-8.09423-14.04084c-.96861-1.68153-.966-1.683.8042-2.62453.46671.14271.60454.57306.81673.93689q4.29691,7.36775,8.56555,14.75191C110.868,218.28873,111.41464,218.73971,111.00694,219.41851Z"/><path class="cls-13" d="M110.38638,233.00319a5.03436,5.03436,0,1,1-4.96469-5.03982A5.12028,5.12028,0,0,1,110.38638,233.00319Z"/><path class="cls-14" d="M65.04821,240.45918c.01181.6767-.56534.74452-.93348.95518-1.77089,1.01328-1.386,1.25556-2.48188-.63389-1.28188-2.21025-2.51772-4.44849-3.85359-6.62547-.46961-.7653-.39408-1.127.38315-1.56328,1.80077-1.01086,1.77218-1.04008,2.83057.81133,1.18351,2.0703,2.3867,4.12934,3.57937,6.19441C64.74225,239.89164,64.90111,240.1922,65.04821,240.45918Z"/><path class="cls-15" d="M134.35195,210.08286a45.90337,45.90337,0,0,0-2.94425-5.33754q-4.91568-8.49279-9.87908-16.958c-.18709-.32082-.27736-.74242-.76984-.751,1.21849-.972,1.22232-.9742,1.97868.33658,4.06559,7.04572,8.11218,14.10251,12.21359,21.12731C135.4977,209.43655,135.39,209.87064,134.35195,210.08286Z"/><path class="cls-10" d="M68.881,232.72815c1.857.71105,3.83142.59175,5.75587.74536a50.0738,50.0738,0,0,0,7.36565-.19749c-3.12363,1.74519-6.44293,3.08462-9.64941,4.65788-.32276.15835-.52377.18177-.721-.17517A45.53672,45.53672,0,0,1,68.881,232.72815Z"/><path class="cls-16" d="M111.00694,219.41851c-1.14418-2.56832-2.72921-4.89029-4.10454-7.32927-1.88082-3.3354-3.79637-6.65121-5.69735-9.97526.64568-.84353,1.046-.61377,1.52487.22537q4.44283,7.78436,8.97491,15.51748C112.29562,218.86121,112.13118,219.29485,111.00694,219.41851Z"/><path class="cls-17" d="M68.74372,236.11643c.02376.30042-.251.361-.45059.5014-2.45661,1.7277-2.45527,1.72913-3.94159-.88546-.1686-.2966-.34038-.59144-.51279-.88586-1.48813-2.54107-1.43058-2.7027,1.3097-3.88786.296-.128.50607-.25731.726.13194.90186,1.59645,1.83174,3.177,2.74988,4.7643C68.66686,235.92846,68.69561,236.01,68.74372,236.11643Z"/><path class="cls-15" d="M106.86858,221.66915q-4.2298-7.246-8.45485-14.49466c-.46538-.80085-.868-1.63813-1.29986-2.45849.49133-.60335.87784-.67608,1.32412.104q4.49574,7.85822,9.05653,15.679C108.01883,221.39439,107.45974,221.486,106.86858,221.66915Z"/><path class="cls-15" d="M81.98367,233.2555A65.09259,65.09259,0,0,0,78.153,226.271a5.07623,5.07623,0,0,0-1.27105-2.01679,4.6327,4.6327,0,0,1-.794-1.31443,3.12585,3.12585,0,0,0-1.29052-1.9981c1.22377-.98209,1.22339-.98187,1.96649.30351q2.9651,5.129,5.93251,10.25656C83.43173,232.769,83.44082,232.76377,81.98367,233.2555Z"/><path class="cls-18" d="M122.56144,192.75485a2.53654,2.53654,0,0,1-1.46359,2.615c-4.27828,2.78842-9.10091,4.25714-13.9106,5.75534a3.87878,3.87878,0,0,1-1.02244.04888c-.88968.02339-.95931-.35772-.49166-1.00217A16.43581,16.43581,0,0,1,109.653,196.593a57.45639,57.45639,0,0,1,9.05339-5.306,9.86848,9.86848,0,0,1,1.3031-.53C121.90885,190.18593,122.55908,190.668,122.56144,192.75485Z"/><path class="cls-18" d="M98.68047,208.70243a3.63027,3.63027,0,0,1-1.71527,3.41134c-3.92786,2.51724-8.32583,3.89953-12.76595,5.16135-.35858.1019-.81242.14821-1.04781-.25152-.24472-.41559.1058-.73756.33606-1.01272a16.74837,16.74837,0,0,1,3.38688-2.92047,47.9248,47.9248,0,0,1,8.76051-5.02561,7.50791,7.50791,0,0,1,1.20727-.42408C98.14031,207.34387,98.69207,207.8059,98.68047,208.70243Z"/><path class="cls-19" d="M76.088,222.93982c.86471.07587.7394.7494.79384,1.31446a3.04665,3.04665,0,0,1-1.57387,1.77241,30.69841,30.69841,0,0,1-6.40256,2.54152c-.372.116-.93589.29151-1.153-.14441-.19194-.38532.30929-.65724.58038-.89159A23.05115,23.05115,0,0,1,76.088,222.93982Z"/><path class="cls-20" d="M136.20032,190.43927c-.00394.53525-.34324.52368-.70881.47927a4.4233,4.4233,0,0,1-2.70532-2.68478c-.05484-.36757-.07322-.67472.43052-.73582C134.18724,187.38022,136.30807,189.47232,136.20032,190.43927Z"/><path class="cls-21" d="M137.23422,192.94265c-.47285-.05236-.79463-.29953-.79243-.79337a.70524.70524,0,0,1,.711-.73732.71708.71708,0,0,1,.80046.77272C137.9551,192.61519,137.65668,192.85073,137.23422,192.94265Z"/><path class="cls-22" d="M109.20052,233.06641a3.72056,3.72056,0,1,1-3.71542-3.66176A3.82377,3.82377,0,0,1,109.20052,233.06641Z"/><path class="cls-23" d="M105.50456,236.07571a2.95017,2.95017,0,1,1,2.92626-2.942A2.95027,2.95027,0,0,1,105.50456,236.07571Z"/><path class="cls-24" d="M301.58059,68.63584a89.38667,89.38667,0,0,0-9.16668,3.09373c-2.93178,1.172-5.76982,2.54067-8.61306,3.90945a153.77592,153.77592,0,0,1-18.08336,7.35881c-2.99274.99727-6.56905,2.16057-9.51816.43a.25019.25019,0,0,0-.25236.43174c2.41128,1.41494,5.281.99956,7.846.26995,3.13118-.89065,6.20668-2.06208,9.23707-3.24523q4.47535-1.74729,8.83449-3.77517c3.12456-1.45364,6.19053-3.03,9.37124-4.36112a89.23265,89.23265,0,0,1,10.47772-3.63.25021.25021,0,0,0-.13292-.48214Z"/><path class="cls-24" d="M247.445,139.14462c-.66991-14.90124,2.73789-29.55558,6.13073-43.95881.77313-3.28207,1.6542-6.77465,4.1992-9.16545.235-.22078-.11906-.57384-.35356-.35355-2.18749,2.055-3.20382,4.93186-3.93392,7.77092-.91433,3.5554-1.7002,7.15147-2.495,10.73521a176.37835,176.37835,0,0,0-3.71356,22.1355,94.63757,94.63757,0,0,0-.33392,12.83618c.01441.32046.51449.32223.5,0Z"/><path class="cls-24" d="M304.3469,192.62717q-9.98139-6.41375-19.56112-13.4245-4.90377-3.591-9.69308-7.33506c-2.90987-2.27527-5.88174-4.52592-8.60768-7.02241-2.72554-2.49613-5.21477-5.4821-5.7907-9.24576-.04852-.317-.53039-.18237-.48214.13292a15.32856,15.32856,0,0,0,4.63776,8.23327,88.15,88.15,0,0,0,8.39669,7.0826q9.475,7.48382,19.40208,14.37023,5.65455,3.92155,11.44583,7.64045c.27151.17446.5225-.25816.25236-.43174Z"/><path class="cls-24" d="M240.24263,200.80158l-.267-26.34687c-.04268-4.21-.14839-8.43238.16588-12.635a45.387,45.387,0,0,1,.88506-6.31774c.2152-.98389.46673-1.96251.77352-2.92206a4.84226,4.84226,0,0,1,1.44325-2.43077c1.96923-1.57675,5.76307-1.21,6.64715-4.01049.09709-.30756-.38546-.43917-.48214-.13292-.40864,1.29445-1.70088,1.79753-2.88242,2.19244a12.03685,12.03685,0,0,0-3.45213,1.45266c-1.37352,1.01495-1.79321,2.781-2.202,4.35033a41.31187,41.31187,0,0,0-1.05933,5.9456,105.61472,105.61472,0,0,0-.35709,12.51007l.13542,13.36073.15187,14.984a.25015.25015,0,0,0,.5,0Z"/><path class="cls-24" d="M163.02728,183.74726a221.12478,221.12478,0,0,1,69.46923-31.37255q10.42794-2.67494,21.08293-4.31882c.317-.049.18237-.53084-.13292-.48214a221.66611,221.66611,0,0,0-72.31215,24.51356q-9.44831,5.16027-18.35945,11.22822c-.26445.18-.01458.61346.25236.43173Z"/><path class="cls-25" d="M172.67023,185.25228c-.3174.38687-.62835.77893-.94191,1.1689q-.44526.55374-.89014,1.10747-.4954.61633-.99082,1.23255c-.20767.25845-.41077.52073-.62414.77435a.89315.89315,0,0,1-.69968.33709c-.943.00334-1.886.00124-2.829.00124v.002c-.90587,0-1.81186-.00459-2.7176.00235a1.04035,1.04035,0,0,1-.87541-.43046c-.343-.43751-.695-.868-1.0432-1.30128q-.50117-.62358-1.00271-1.24691-.54612-.67857-1.09261-1.35676c-.10328-.12829-.211-.25349-.30724-.387a.958.958,0,0,1-.14316-.81559q.297-1.27762.589-2.55637c.21449-.932.42712-1.86436.64457-2.79562a.8901.8901,0,0,1,.49609-.6193c.61609-.29969,1.235-.59343,1.8531-.88878q1.513-.72315,3.02633-1.44493a1.49762,1.49762,0,0,1,.40581-.15492.98832.98832,0,0,1,.59454.081q.90222.43058,1.80394.86178c1.04518.49906,2.08863,1.00172,3.13679,1.49459a1.06143,1.06143,0,0,1,.62116.78723c.14638.67429.30675,1.34561.4613,2.01817q.23887,1.03875.47788,2.07737c.08768.38129.17152.76333.264,1.14338A.98764.98764,0,0,1,172.67023,185.25228Z"/><path class="cls-26" d="M172.67023,185.25228c-.3174.38687-.62835.77893-.94191,1.1689q-.44526.55374-.89014,1.10747-.4954.61633-.99082,1.23255c-.20767.25845-.41077.52073-.62414.77435a.89315.89315,0,0,1-.69968.33709c-.943.00334-1.886.00124-2.829.00124v.002c-.90587,0-1.81186-.00459-2.7176.00235a1.04035,1.04035,0,0,1-.87541-.43046c-.343-.43751-.695-.868-1.0432-1.30128q-.50117-.62358-1.00271-1.24691-.54612-.67857-1.09261-1.35676c-.10328-.12829-.211-.25349-.30724-.387a.958.958,0,0,1-.14316-.81559q.297-1.27762.589-2.55637c.21449-.932.42712-1.86436.64457-2.79562a.8901.8901,0,0,1,.49609-.6193c.61609-.29969,1.235-.59343,1.8531-.88878q1.513-.72315,3.02633-1.44493a1.49762,1.49762,0,0,1,.40581-.15492.98832.98832,0,0,1,.59454.081q.90222.43058,1.80394.86178c1.04518.49906,2.08863,1.00172,3.13679,1.49459a1.06143,1.06143,0,0,1,.62116.78723c.14638.67429.30675,1.34561.4613,2.01817q.23887,1.03875.47788,2.07737c.08768.38129.17152.76333.264,1.14338A.98764.98764,0,0,1,172.67023,185.25228Z"/><path class="cls-2" d="M165.47061,178.80683a5.03586,5.03586,0,0,0-.07086-.63813.54128.54128,0,0,1,.0167-.25662.303.303,0,0,1,.30469-.21455.32109.32109,0,0,1,.27747.281,1.44375,1.44375,0,0,1-.02977.39884,3.45585,3.45585,0,0,0-.04479.50416.22825.22825,0,0,0,.07767.19342c.03644.0291.03095.07024.03052.10844-.0004.03586.01163.05085.04862.0546a3.89324,3.89324,0,0,1,2.12826.90018,2.95057,2.95057,0,0,1,.276.25729c.02926.03128.052.04153.086.008a.16585.16585,0,0,1,.14614-.04867.194.194,0,0,0,.14754-.05063,3.30293,3.30293,0,0,0,.41555-.39714,1.529,1.529,0,0,1,.20951-.20088.34487.34487,0,0,1,.25919-.07836.27252.27252,0,0,1,.243.19989.32063.32063,0,0,1-.10758.33984,1.17718,1.17718,0,0,1-.2396.16271,3.08948,3.08948,0,0,0-.50894.3377.19745.19745,0,0,0-.08069.15934c.00115.05126-.04274.06809-.07119.09452a.052.052,0,0,0-.00941.08152,3.86514,3.86514,0,0,1,.5852,1.52073,3.66958,3.66958,0,0,1,.01728,1.07181c-.00636.04731.00285.07613.05452.081a.11946.11946,0,0,1,.09272.063c.06688.10756.18337.10817.28837.12857.19844.03856.401.04189.60142.06393a.458.458,0,0,1,.28194.11152.28548.28548,0,0,1,.07249.34275.32916.32916,0,0,1-.331.16906,1.19172,1.19172,0,0,1-.27188-.07821,3.354,3.354,0,0,0-.59062-.196.211.211,0,0,0-.19355.03241.096.096,0,0,1-.09943.0077c-.04785-.01476-.06388.00054-.07851.04484a3.89824,3.89824,0,0,1-1.66155,2.09085c-.04459.0272-.051.05-.02672.09062a.12261.12261,0,0,1,.005.12162.18673.18673,0,0,0,.01687.16059,3.38563,3.38563,0,0,0,.3138.524.76241.76241,0,0,1,.1645.34123.29844.29844,0,0,1-.17941.32627.31251.31251,0,0,1-.35716-.11229.87929.87929,0,0,1-.13091-.29142,3.61473,3.61473,0,0,0-.21221-.57853.22755.22755,0,0,0-.15527-.13848c-.04395-.01017-.05105-.05123-.06755-.08251-.01617-.03069-.03057-.03989-.06615-.02664a3.83648,3.83648,0,0,1-1.57772.23,3.65419,3.65419,0,0,1-1.077-.2262c-.05893-.02211-.09131-.0167-.1119.04348a.09973.09973,0,0,1-.07862.06936.18829.18829,0,0,0-.11563.09594,1.64557,1.64557,0,0,0-.119.27058c-.07488.18709-.10846.38873-.20057.56944a.32582.32582,0,0,1-.30877.19993.29828.29828,0,0,1-.25933-.40735.91023.91023,0,0,1,.13194-.25038,3.62691,3.62691,0,0,0,.335-.55443.18091.18091,0,0,0,.01639-.1546.15729.15729,0,0,1,.01387-.15129c.01825-.03333.01276-.05233-.02184-.07374a3.87183,3.87183,0,0,1-1.67312-2.08816c-.015-.0436-.03981-.04833-.07311-.03744a.14948.14948,0,0,1-.13435-.01956.24217.24217,0,0,0-.19655-.013,3.75575,3.75575,0,0,0-.55489.18646.83732.83732,0,0,1-.32707.08114.29507.29507,0,0,1-.13211-.56675.70281.70281,0,0,1,.2685-.06392,3.98633,3.98633,0,0,0,.67311-.08412.226.226,0,0,0,.14071-.09206.14925.14925,0,0,1,.10868-.07236c.0508-.00554.05983-.03537.05225-.08132a2.799,2.799,0,0,1-.03377-.4434,3.87561,3.87561,0,0,1,.61909-2.14633c.02564-.04017.03263-.06754-.01156-.095a.14576.14576,0,0,1-.06353-.11351.20705.20705,0,0,0-.07995-.13443,3.15672,3.15672,0,0,0-.49941-.33,1.42058,1.42058,0,0,1-.24074-.16142.3115.3115,0,0,1-.00918-.4888.33291.33291,0,0,1,.39213.01679,1.48175,1.48175,0,0,1,.21891.20888,3.37754,3.37754,0,0,0,.406.38927.22971.22971,0,0,0,.19973.05869c.04338-.00984.06659.01942.09157.04.03563.02935.056.02247.08625-.00882a3.86325,3.86325,0,0,1,2.28708-1.14365c.0204-.0025.0405-.00787.06094-.00961.10717-.00914.10737-.00886.12008-.11115a.048.048,0,0,1,.01213-.03369A.31493.31493,0,0,0,165.47061,178.80683Z"/><path class="cls-27" d="M167.04166,183.91052q.222.03707.444.07415.53222.08967,1.06443.17931c.08127.01353.08239.01183.053.08706a3.07876,3.07876,0,0,1-1.176,1.46605c-.03131.02109-.045.02289-.06126-.01664-.19146-.46625-.38581-.93131-.5768-1.39775a.26457.26457,0,0,1,.16-.37917A.89714.89714,0,0,1,167.04166,183.91052Z"/><path class="cls-27" d="M165.31538,180.10344q-.04149.73171-.08334,1.46732a.2722.2722,0,0,1-.4457.22661q-.61564-.43525-1.23071-.87132c-.0329-.02321-.033-.03557-.0039-.06286a3.0848,3.0848,0,0,1,1.57515-.79818c.04244-.0079.085-.01492.12747-.023C165.30322,180.03281,165.332,180.04407,165.31538,180.10344Z"/><path class="cls-27" d="M164.30657,182.73737a.27153.27153,0,0,1-.21988.27673c-.47769.13946-.95622.276-1.43409.41485-.03389.00985-.04626.00821-.04978-.03164a3.06857,3.06857,0,0,1,.41206-1.85577c.0146-.02511.021-.0589.06353-.02049.36888.33314.74.66377,1.1095.99624A.27789.27789,0,0,1,164.30657,182.73737Z"/><path class="cls-27" d="M168.79578,183.43541c-.19476-.056-.38572-.11082-.57667-.16573q-.44415-.12776-.88816-.256a.37735.37735,0,0,1-.15824-.08.252.252,0,0,1-.01295-.36958c.1462-.14216.29963-.27694.45127-.41342.22983-.20686.46173-.41143.69037-.61958.04081-.03716.0535-.0264.07759.01493a3.13583,3.13583,0,0,1,.40888,1.21868A2.99963,2.99963,0,0,1,168.79578,183.43541Z"/><path class="cls-27" d="M165.73381,186.23529a3.27716,3.27716,0,0,1-.979-.14927c-.03939-.01253-.04516-.02365-.02423-.06127.24208-.435.48107-.87173.7235-1.30654a.268.268,0,0,1,.49756.00709c.24388.43392.48284.87062.72489,1.30558.01775.0319.01448.04432-.02139.05536a3.19886,3.19886,0,0,1-.70671.13671C165.86418,186.22916,165.7801,186.23818,165.73381,186.23529Z"/><path class="cls-27" d="M164.369,183.91815a.262.262,0,0,1,.25877.32049,3.96573,3.96573,0,0,1-.19932.51094c-.126.31075-.25719.6194-.38259.93038-.0218.05407-.03932.05107-.08107.02241a3.10543,3.10543,0,0,1-1.165-1.46073c-.016-.04108-.02543-.05878.035-.06868.47484-.07785.9488-.161,1.42312-.242C164.29641,183.92441,164.3356,183.92192,164.369,183.91815Z"/><path class="cls-27" d="M166.08378,180.12871a.173.173,0,0,0-.00027-.03089c-.00979-.05313.01547-.06259.062-.05541a3.13587,3.13587,0,0,1,1.68121.81278c.03569.03332.03968.04906-.00344.07939q-.59408.418-1.18568.83948a.30556.30556,0,0,1-.28841.06586.24588.24588,0,0,1-.17688-.22348c-.01634-.19717-.02637-.39488-.03753-.59244-.01685-.29842-.03241-.59692-.04852-.89538Z"/><path class="cls-27" d="M165.73132,182.62831c.15525-.0533.271.04081.36146.18971a.325.325,0,0,0,.06142.07713.19942.19942,0,0,1,.05613.23587,3.034,3.034,0,0,0-.07171.29925.06894.06894,0,0,1-.04334.05363c-.12076.05729-.24139.11487-.36129.17395a.06986.06986,0,0,1-.06906-.00051q-.17973-.08862-.36139-.1733a.07811.07811,0,0,1-.04689-.059q-.04323-.18913-.08716-.3781a.09024.09024,0,0,1,.01956-.08531c.08279-.09987.16368-.20135.24387-.30333a.06968.06968,0,0,1,.06221-.03057C165.5631,182.62941,165.63114,182.62831,165.73132,182.62831Z"/><path class="cls-25" d="M262.7829,89.647c-.3174.38686-.62835.77893-.94191,1.16889q-.44524.55374-.89014,1.10748-.4954.61633-.99082,1.23255c-.20767.25845-.41076.52073-.62413.77435a.89318.89318,0,0,1-.69968.33709c-.943.00334-1.886.00123-2.82906.00123v.002c-.90587,0-1.81186-.00459-2.7176.00235a1.04033,1.04033,0,0,1-.8754-.43046c-.343-.43752-.695-.868-1.04321-1.30128q-.50117-.62358-1.00271-1.24691-.54612-.67857-1.09261-1.35676c-.10328-.1283-.211-.2535-.30724-.387a.95793.95793,0,0,1-.14315-.81559q.297-1.27763.589-2.55637c.21449-.932.42712-1.86436.64457-2.79562a.89011.89011,0,0,1,.4961-.61931c.61608-.29968,1.235-.59342,1.85309-.88877q1.513-.72315,3.02633-1.44493a1.49775,1.49775,0,0,1,.40581-.15492.98836.98836,0,0,1,.59455.081q.9022.43058,1.80393.86178c1.04518.49906,2.08863,1.00171,3.13679,1.49458a1.06146,1.06146,0,0,1,.62117.78724c.14637.67429.30674,1.34561.46129,2.01817q.23888,1.03874.47788,2.07736c.08768.3813.17152.76333.264,1.14339A.98767.98767,0,0,1,262.7829,89.647Z"/><path class="cls-26" d="M262.7829,89.647c-.3174.38686-.62835.77893-.94191,1.16889q-.44524.55374-.89014,1.10748-.4954.61633-.99082,1.23255c-.20767.25845-.41076.52073-.62413.77435a.89318.89318,0,0,1-.69968.33709c-.943.00334-1.886.00123-2.82906.00123v.002c-.90587,0-1.81186-.00459-2.7176.00235a1.04033,1.04033,0,0,1-.8754-.43046c-.343-.43752-.695-.868-1.04321-1.30128q-.50117-.62358-1.00271-1.24691-.54612-.67857-1.09261-1.35676c-.10328-.1283-.211-.2535-.30724-.387a.95793.95793,0,0,1-.14315-.81559q.297-1.27763.589-2.55637c.21449-.932.42712-1.86436.64457-2.79562a.89011.89011,0,0,1,.4961-.61931c.61608-.29968,1.235-.59342,1.85309-.88877q1.513-.72315,3.02633-1.44493a1.49775,1.49775,0,0,1,.40581-.15492.98836.98836,0,0,1,.59455.081q.9022.43058,1.80393.86178c1.04518.49906,2.08863,1.00171,3.13679,1.49458a1.06146,1.06146,0,0,1,.62117.78724c.14637.67429.30674,1.34561.46129,2.01817q.23888,1.03874.47788,2.07736c.08768.3813.17152.76333.264,1.14339A.98767.98767,0,0,1,262.7829,89.647Z"/><path class="cls-2" d="M255.58328,83.20154a5.03383,5.03383,0,0,0-.07086-.63813.54153.54153,0,0,1,.0167-.25662.303.303,0,0,1,.3047-.21455.32109.32109,0,0,1,.27747.281,1.44417,1.44417,0,0,1-.02978.39884,3.45585,3.45585,0,0,0-.04479.50416.22826.22826,0,0,0,.07767.19342c.03644.02909.031.07023.03053.10844-.00041.03586.01162.05084.04861.0546a3.8933,3.8933,0,0,1,2.12826.90017,2.94943,2.94943,0,0,1,.276.2573c.02926.03128.052.04153.086.008a.16583.16583,0,0,1,.14614-.04867.19412.19412,0,0,0,.14755-.05063,3.30353,3.30353,0,0,0,.41554-.39714,1.52973,1.52973,0,0,1,.20952-.20089.34486.34486,0,0,1,.25918-.07835.27251.27251,0,0,1,.243.19989.32063.32063,0,0,1-.10758.33984,1.17691,1.17691,0,0,1-.2396.16271,3.08942,3.08942,0,0,0-.50894.33769.19744.19744,0,0,0-.08068.15935c.00114.05126-.04274.06809-.0712.09452a.052.052,0,0,0-.00941.08152,3.86493,3.86493,0,0,1,.5852,1.52073,3.66958,3.66958,0,0,1,.01728,1.07181c-.00636.04731.00285.07613.05452.081a.11943.11943,0,0,1,.09272.063c.06688.10756.18337.10816.28837.12857.19844.03856.401.04188.60142.06393a.458.458,0,0,1,.28194.11152.28546.28546,0,0,1,.07249.34275.32916.32916,0,0,1-.331.16906,1.19223,1.19223,0,0,1-.27188-.07821,3.35238,3.35238,0,0,0-.59062-.196.211.211,0,0,0-.19355.03241.09593.09593,0,0,1-.09943.00769c-.04784-.01475-.06388.00055-.07851.04485a3.89826,3.89826,0,0,1-1.66155,2.09084c-.04459.02721-.051.05-.02672.09063a.12263.12263,0,0,1,.005.12162.18666.18666,0,0,0,.01686.16058,3.38626,3.38626,0,0,0,.3138.524.76262.76262,0,0,1,.16451.34124.29844.29844,0,0,1-.17942.32626.31249.31249,0,0,1-.35716-.11228.87934.87934,0,0,1-.13091-.29143,3.615,3.615,0,0,0-.21221-.57852.22756.22756,0,0,0-.15527-.13849c-.04395-.01017-.051-.05122-.06754-.0825-.01618-.03069-.03058-.03989-.06616-.02664a3.83646,3.83646,0,0,1-1.57772.23,3.6545,3.6545,0,0,1-1.077-.2262c-.05893-.02212-.09131-.0167-.11189.04348a.09977.09977,0,0,1-.07863.06936.18826.18826,0,0,0-.11563.09594,1.64431,1.64431,0,0,0-.119.27058c-.07489.18709-.10847.38873-.20058.56943a.32584.32584,0,0,1-.30877.19994.29828.29828,0,0,1-.25933-.40735.9107.9107,0,0,1,.13194-.25039,3.62633,3.62633,0,0,0,.335-.55442.18093.18093,0,0,0,.01639-.15461.1573.1573,0,0,1,.01387-.15128c.01825-.03334.01276-.05234-.02183-.07374a3.8718,3.8718,0,0,1-1.67313-2.08816c-.015-.0436-.0398-.04833-.07311-.03744a.14945.14945,0,0,1-.13435-.01957.24221.24221,0,0,0-.19655-.013,3.75676,3.75676,0,0,0-.55488.18645.83725.83725,0,0,1-.32708.08115.29507.29507,0,0,1-.1321-.56675.70272.70272,0,0,1,.26849-.06392,3.98532,3.98532,0,0,0,.67311-.08413.2259.2259,0,0,0,.14071-.09206.14927.14927,0,0,1,.10868-.07235c.0508-.00554.05984-.03537.05225-.08132a2.80145,2.80145,0,0,1-.03377-.4434,3.87561,3.87561,0,0,1,.61909-2.14633c.02564-.04017.03263-.06754-.01156-.09505a.14572.14572,0,0,1-.06352-.11351.20706.20706,0,0,0-.08-.13443,3.15678,3.15678,0,0,0-.49941-.33,1.42,1.42,0,0,1-.24074-.16142.31149.31149,0,0,1-.00918-.48879.33291.33291,0,0,1,.39213.01679,1.48227,1.48227,0,0,1,.21892.20887,3.37535,3.37535,0,0,0,.406.38928.22966.22966,0,0,0,.19972.05868c.04338-.00983.06659.01943.09157.04.03563.02935.056.02246.08625-.00882a3.86325,3.86325,0,0,1,2.28708-1.14365c.0204-.0025.0405-.00787.06094-.00961.10717-.00914.10737-.00886.12008-.11115a.048.048,0,0,1,.01213-.03369A.31494.31494,0,0,0,255.58328,83.20154Z"/><path class="cls-27" d="M257.15433,88.30523q.222.03705.444.07415.53222.08967,1.06443.17931c.08128.01353.08239.01182.053.08706a3.07889,3.07889,0,0,1-1.176,1.466c-.03131.02108-.045.02289-.06126-.01665-.19146-.46624-.38581-.9313-.5768-1.39774a.26459.26459,0,0,1,.16-.37918A.89441.89441,0,0,1,257.15433,88.30523Z"/><path class="cls-27" d="M255.42805,84.49815q-.04149.73172-.08334,1.46732a.2722.2722,0,0,1-.4457.22661q-.61565-.43526-1.23071-.87132c-.03289-.02321-.033-.03557-.0039-.06286a3.0848,3.0848,0,0,1,1.57515-.79818c.04244-.00791.085-.01492.12747-.023C255.41589,84.42752,255.44462,84.43877,255.42805,84.49815Z"/><path class="cls-27" d="M254.41924,87.13207a.27151.27151,0,0,1-.21988.27674c-.47769.13945-.95622.276-1.43408.41485-.0339.00985-.04627.0082-.04978-.03164a3.06849,3.06849,0,0,1,.41205-1.85577c.0146-.02511.021-.0589.06353-.02049.36888.33313.74.66376,1.1095.99624A.27786.27786,0,0,1,254.41924,87.13207Z"/><path class="cls-27" d="M258.90845,87.83011c-.19476-.056-.38572-.11081-.57667-.16573q-.44415-.12774-.88816-.256a.37747.37747,0,0,1-.15824-.08.252.252,0,0,1-.01295-.36959c.1462-.14215.29963-.27693.45127-.41342.22983-.20685.46173-.41142.69037-.61958.04081-.03715.0535-.0264.07759.01494a3.136,3.136,0,0,1,.40889,1.21868A3.00015,3.00015,0,0,1,258.90845,87.83011Z"/><path class="cls-27" d="M255.84648,90.63a3.27785,3.27785,0,0,1-.979-.14927c-.03939-.01253-.04516-.02365-.02422-.06127.24208-.435.48106-.87173.72349-1.30654a.268.268,0,0,1,.49756.00709c.24389.43392.48285.87061.72489,1.30558.01775.03189.01449.04432-.02139.05536a3.19889,3.19889,0,0,1-.7067.13671C255.97685,90.62387,255.89277,90.63289,255.84648,90.63Z"/><path class="cls-27" d="M254.48172,88.31286a.262.262,0,0,1,.25876.32049,3.96573,3.96573,0,0,1-.19932.51094c-.126.31075-.25719.6194-.38259.93038-.0218.05407-.03932.05107-.08106.02241a3.10544,3.10544,0,0,1-1.165-1.46073c-.016-.04108-.02542-.05878.035-.06869.47483-.07784.94879-.161,1.42311-.242C254.40908,88.31912,254.44828,88.31663,254.48172,88.31286Z"/><path class="cls-27" d="M256.19645,84.52342a.173.173,0,0,0-.00026-.03089c-.0098-.05313.01547-.0626.062-.05541a3.13557,3.13557,0,0,1,1.68121.81278c.0357.03331.03968.04906-.00343.07939q-.59409.418-1.18569.83947a.30552.30552,0,0,1-.2884.06587.24589.24589,0,0,1-.17689-.22348c-.01633-.19717-.02637-.39488-.03752-.59245-.01686-.29842-.03242-.59691-.04853-.89537Z"/><path class="cls-27" d="M255.844,87.023c.15525-.05329.271.04081.36146.18971a.32527.32527,0,0,0,.06142.07714.19942.19942,0,0,1,.05613.23587,3.034,3.034,0,0,0-.07171.29925.06892.06892,0,0,1-.04334.05363c-.12076.05729-.24139.11487-.36128.17394a.06981.06981,0,0,1-.06906-.00051q-.17974-.08861-.3614-.17329a.07815.07815,0,0,1-.04689-.059q-.04322-.18913-.08716-.3781a.09024.09024,0,0,1,.01956-.08531c.08279-.09988.16368-.20135.24387-.30333a.06966.06966,0,0,1,.06221-.03057C255.67577,87.02412,255.74382,87.023,255.844,87.023Z"/><path class="cls-25" d="M311.41732,194.57516c-.31739.38686-.62834.77893-.9419,1.16889q-.44526.55374-.89014,1.10748-.49541.61633-.99082,1.23255c-.20767.25844-.41077.52073-.62414.77435a.89311.89311,0,0,1-.69968.33708c-.943.00335-1.886.00124-2.829.00124v.002c-.90587,0-1.81186-.00458-2.71761.00236a1.04034,1.04034,0,0,1-.8754-.43046c-.343-.43752-.695-.868-1.0432-1.30128q-.50117-.62358-1.00271-1.24692-.54612-.67855-1.09261-1.35675c-.10328-.1283-.211-.2535-.30724-.387a.95794.95794,0,0,1-.14316-.81559q.297-1.27762.589-2.55637c.21449-.932.42711-1.86437.64457-2.79562a.89008.89008,0,0,1,.49609-.61931c.61609-.29968,1.235-.59343,1.8531-.88878q1.513-.72314,3.02633-1.44493a1.49815,1.49815,0,0,1,.40581-.15492.98848.98848,0,0,1,.59454.081q.90222.43059,1.80394.86179c1.04518.49906,2.08863,1.00171,3.13679,1.49458a1.06145,1.06145,0,0,1,.62116.78723c.14638.6743.30675,1.34562.46129,2.01818q.23889,1.03873.47789,2.07736c.08768.38129.17152.76333.264,1.14339A.98765.98765,0,0,1,311.41732,194.57516Z"/><path class="cls-26" d="M311.41732,194.57516c-.31739.38686-.62834.77893-.9419,1.16889q-.44526.55374-.89014,1.10748-.49541.61633-.99082,1.23255c-.20767.25844-.41077.52073-.62414.77435a.89311.89311,0,0,1-.69968.33708c-.943.00335-1.886.00124-2.829.00124v.002c-.90587,0-1.81186-.00458-2.71761.00236a1.04034,1.04034,0,0,1-.8754-.43046c-.343-.43752-.695-.868-1.0432-1.30128q-.50117-.62358-1.00271-1.24692-.54612-.67855-1.09261-1.35675c-.10328-.1283-.211-.2535-.30724-.387a.95794.95794,0,0,1-.14316-.81559q.297-1.27762.589-2.55637c.21449-.932.42711-1.86437.64457-2.79562a.89008.89008,0,0,1,.49609-.61931c.61609-.29968,1.235-.59343,1.8531-.88878q1.513-.72314,3.02633-1.44493a1.49815,1.49815,0,0,1,.40581-.15492.98848.98848,0,0,1,.59454.081q.90222.43059,1.80394.86179c1.04518.49906,2.08863,1.00171,3.13679,1.49458a1.06145,1.06145,0,0,1,.62116.78723c.14638.6743.30675,1.34562.46129,2.01818q.23889,1.03873.47789,2.07736c.08768.38129.17152.76333.264,1.14339A.98765.98765,0,0,1,311.41732,194.57516Z"/><path class="cls-2" d="M304.21771,188.1297a5.0357,5.0357,0,0,0-.07086-.63812.54127.54127,0,0,1,.0167-.25662.303.303,0,0,1,.30469-.21456.3211.3211,0,0,1,.27747.281,1.44416,1.44416,0,0,1-.02977.39884,3.45447,3.45447,0,0,0-.04479.50416.22823.22823,0,0,0,.07767.19341c.03644.0291.03095.07024.03052.10844-.0004.03586.01163.05085.04862.0546a3.89331,3.89331,0,0,1,2.12826.90018,2.94934,2.94934,0,0,1,.276.2573c.02926.03128.052.04153.086.008a.16585.16585,0,0,1,.14614-.04866.19406.19406,0,0,0,.14754-.05064,3.30151,3.30151,0,0,0,.41555-.39714,1.53018,1.53018,0,0,1,.20951-.20088.34489.34489,0,0,1,.25919-.07835.27251.27251,0,0,1,.243.19988.32062.32062,0,0,1-.10758.33984,1.17682,1.17682,0,0,1-.2396.16272,3.08879,3.08879,0,0,0-.50894.33769.19747.19747,0,0,0-.08069.15935c.00115.05126-.04274.06808-.07119.09452a.052.052,0,0,0-.00941.08152,3.86517,3.86517,0,0,1,.5852,1.52073,3.66958,3.66958,0,0,1,.01728,1.07181c-.00636.04731.00285.07613.05452.081a.11943.11943,0,0,1,.09272.063c.06688.10756.18337.10816.28837.12856.19844.03856.401.04189.60142.06394a.458.458,0,0,1,.28194.11152.28548.28548,0,0,1,.07249.34275.32919.32919,0,0,1-.331.16906,1.19229,1.19229,0,0,1-.27187-.07821,3.35324,3.35324,0,0,0-.59062-.196.211.211,0,0,0-.19355.03242.09593.09593,0,0,1-.09943.00769c-.04785-.01476-.06389.00055-.07851.04485a3.89826,3.89826,0,0,1-1.66155,2.09084c-.04459.02721-.051.05-.02672.09063a.12261.12261,0,0,1,.005.12162.18667.18667,0,0,0,.01687.16058,3.38469,3.38469,0,0,0,.3138.524.76251.76251,0,0,1,.1645.34123.29844.29844,0,0,1-.17942.32627.31247.31247,0,0,1-.35715-.11229.8792.8792,0,0,1-.13091-.29142,3.615,3.615,0,0,0-.21222-.57852.22753.22753,0,0,0-.15526-.13849c-.04395-.01017-.05106-.05123-.06755-.0825-.01617-.03069-.03057-.03989-.06615-.02664a3.83665,3.83665,0,0,1-1.57772.23,3.65476,3.65476,0,0,1-1.077-.2262c-.05894-.02212-.09132-.01671-.1119.04348a.09971.09971,0,0,1-.07863.06935.18833.18833,0,0,0-.11562.09594,1.6453,1.6453,0,0,0-.119.27059c-.07489.18709-.10846.38873-.20057.56943a.32582.32582,0,0,1-.30877.19993.29828.29828,0,0,1-.25934-.40734.91073.91073,0,0,1,.132-.25039,3.62509,3.62509,0,0,0,.335-.55443.18091.18091,0,0,0,.0164-.1546.15727.15727,0,0,1,.01387-.15128c.01825-.03334.01276-.05234-.02184-.07374a3.87183,3.87183,0,0,1-1.67312-2.08816c-.015-.0436-.03981-.04833-.07311-.03744a.14948.14948,0,0,1-.13435-.01957.24217.24217,0,0,0-.19655-.013,3.75571,3.75571,0,0,0-.55489.18645.83715.83715,0,0,1-.32707.08115.29507.29507,0,0,1-.13211-.56675.70263.70263,0,0,1,.2685-.06392,3.98558,3.98558,0,0,0,.67311-.08413.22594.22594,0,0,0,.14071-.09206.14927.14927,0,0,1,.10867-.07235c.0508-.00554.05984-.03537.05226-.08132a2.79913,2.79913,0,0,1-.03377-.44341,3.87552,3.87552,0,0,1,.61909-2.14632c.02564-.04018.03263-.06754-.01156-.095a.14579.14579,0,0,1-.06353-.11351.207.207,0,0,0-.07995-.13443,3.15609,3.15609,0,0,0-.49941-.33,1.42,1.42,0,0,1-.24074-.16142.31149.31149,0,0,1-.00918-.48879.33288.33288,0,0,1,.39213.01679,1.4822,1.4822,0,0,1,.21891.20887,3.376,3.376,0,0,0,.406.38927.22966.22966,0,0,0,.19973.05869c.04338-.00983.06659.01942.09157.04.03563.02935.056.02246.08625-.00882a3.8631,3.8631,0,0,1,2.28708-1.14365c.0204-.0025.0405-.00787.06094-.00961.10717-.00914.10737-.00886.12008-.11116a.04794.04794,0,0,1,.01213-.03368A.315.315,0,0,0,304.21771,188.1297Z"/><path class="cls-27" d="M305.78876,193.2334q.222.03705.444.07415.53221.08967,1.06443.1793c.08127.01354.08238.01183.053.08706a3.07885,3.07885,0,0,1-1.176,1.46606c-.03131.02108-.045.02289-.06126-.01665-.19146-.46625-.38581-.93131-.5768-1.39775a.26458.26458,0,0,1,.16-.37917A.894.894,0,0,1,305.78876,193.2334Z"/><path class="cls-27" d="M304.06248,189.42632q-.04149.7317-.08334,1.46732a.2722.2722,0,0,1-.4457.22661q-.61564-.43525-1.23071-.87132c-.0329-.02321-.033-.03557-.0039-.06287a3.08486,3.08486,0,0,1,1.57515-.79817c.04244-.00791.085-.01492.12747-.023C304.05031,189.35568,304.07905,189.36694,304.06248,189.42632Z"/><path class="cls-27" d="M303.05367,192.06024a.27154.27154,0,0,1-.21988.27674c-.47769.13945-.95622.276-1.43409.41485-.03389.00985-.04626.0082-.04978-.03165a3.06855,3.06855,0,0,1,.41206-1.85576c.0146-.02511.021-.05891.06353-.0205.36888.33314.74.66377,1.10949.99625A.27787.27787,0,0,1,303.05367,192.06024Z"/><path class="cls-27" d="M307.54288,192.75828c-.19476-.056-.38573-.11081-.57667-.16573q-.44415-.12774-.88816-.256a.37737.37737,0,0,1-.15825-.08.252.252,0,0,1-.01295-.36959c.14621-.14215.29964-.27693.45128-.41342.22983-.20686.46173-.41142.69037-.61958.04081-.03715.05349-.0264.07759.01494a3.13583,3.13583,0,0,1,.40888,1.21868A2.99955,2.99955,0,0,1,307.54288,192.75828Z"/><path class="cls-27" d="M304.48091,195.55817a3.27748,3.27748,0,0,1-.979-.14928c-.0394-.01252-.04516-.02364-.02423-.06126.24208-.435.48107-.87174.7235-1.30655a.268.268,0,0,1,.49755.0071c.24389.43392.48285.87061.72489,1.30558.01775.03189.01449.04432-.02138.05536a3.19886,3.19886,0,0,1-.70671.13671C304.61128,195.552,304.5272,195.56105,304.48091,195.55817Z"/><path class="cls-27" d="M303.11614,193.241a.262.262,0,0,1,.25877.32049,3.96573,3.96573,0,0,1-.19932.51094c-.126.31075-.25719.6194-.38259.93038-.0218.05407-.03932.05107-.08107.0224a3.10541,3.10541,0,0,1-1.165-1.46072c-.016-.04108-.02543-.05879.035-.06869.47483-.07784.94879-.161,1.42312-.242C303.04351,193.24728,303.0827,193.2448,303.11614,193.241Z"/><path class="cls-27" d="M304.83088,189.45159a.17294.17294,0,0,0-.00027-.03089c-.0098-.05314.01547-.0626.062-.05541a3.13568,3.13568,0,0,1,1.68121.81278c.03569.03331.03968.04906-.00344.07939q-.59408.418-1.18568.83947a.30556.30556,0,0,1-.28841.06587.24589.24589,0,0,1-.17688-.22348c-.01634-.19717-.02637-.39488-.03753-.59245-.01685-.29842-.03241-.59691-.04852-.89537Z"/><path class="cls-27" d="M304.47841,191.95118c.15526-.05329.271.04081.36147.18971a.32543.32543,0,0,0,.06141.07714.19941.19941,0,0,1,.05614.23587,3.034,3.034,0,0,0-.07171.29925.06894.06894,0,0,1-.04334.05363c-.12076.05729-.2414.11487-.36129.17394a.06981.06981,0,0,1-.06906-.00051q-.17973-.0886-.36139-.17329a.07812.07812,0,0,1-.04689-.059q-.04323-.18913-.08716-.3781a.09024.09024,0,0,1,.01956-.08531c.08279-.09988.16367-.20135.24387-.30333a.06969.06969,0,0,1,.06221-.03058C304.3102,191.95229,304.37824,191.95118,304.47841,191.95118Z"/><path class="cls-25" d="M249.65356,202.78643c-.45939.55994-.90947,1.12742-1.3633,1.69184q-.64446.80148-1.28838,1.60295-.71706.89208-1.4341,1.784c-.30059.37408-.59454.75371-.90338,1.12079a1.29275,1.29275,0,0,1-1.0127.4879c-1.36492.00484-2.72984.00179-4.09475.00179v.00287c-1.31114,0-2.62247-.00664-3.93343.0034a1.50577,1.50577,0,0,1-1.26705-.623c-.4965-.63326-1.0059-1.25629-1.50992-1.88346q-.72539-.90257-1.45131-1.80477-.79046-.98214-1.58144-1.96376c-.14949-.18569-.30542-.3669-.44469-.56012a1.38651,1.38651,0,0,1-.20721-1.18048q.42991-1.84922.85247-3.70006c.31044-1.349.6182-2.69846.93295-4.04635a1.28826,1.28826,0,0,1,.718-.89638c.89172-.43376,1.78757-.85892,2.68216-1.28641q2.18986-1.04667,4.38027-2.09138a2.16837,2.16837,0,0,1,.58737-.22423,1.43056,1.43056,0,0,1,.86054.11723q1.30585.62322,2.611,1.24733c1.51279.72234,3.02307,1.44988,4.54016,2.16325a1.53632,1.53632,0,0,1,.89907,1.13943c.21186.976.444,1.94763.66767,2.92108q.34575,1.50348.69169,3.00676c.1269.55188.24825,1.10484.38214,1.65493A1.42953,1.42953,0,0,1,249.65356,202.78643Z"/><path class="cls-26" d="M249.65356,202.78643c-.45939.55994-.90947,1.12742-1.3633,1.69184q-.64446.80148-1.28838,1.60295-.71706.89208-1.4341,1.784c-.30059.37408-.59454.75371-.90338,1.12079a1.29275,1.29275,0,0,1-1.0127.4879c-1.36492.00484-2.72984.00179-4.09475.00179v.00287c-1.31114,0-2.62247-.00664-3.93343.0034a1.50577,1.50577,0,0,1-1.26705-.623c-.4965-.63326-1.0059-1.25629-1.50992-1.88346q-.72539-.90257-1.45131-1.80477-.79046-.98214-1.58144-1.96376c-.14949-.18569-.30542-.3669-.44469-.56012a1.38651,1.38651,0,0,1-.20721-1.18048q.42991-1.84922.85247-3.70006c.31044-1.349.6182-2.69846.93295-4.04635a1.28826,1.28826,0,0,1,.718-.89638c.89172-.43376,1.78757-.85892,2.68216-1.28641q2.18986-1.04667,4.38027-2.09138a2.16837,2.16837,0,0,1,.58737-.22423,1.43056,1.43056,0,0,1,.86054.11723q1.30585.62322,2.611,1.24733c1.51279.72234,3.02307,1.44988,4.54016,2.16325a1.53632,1.53632,0,0,1,.89907,1.13943c.21186.976.444,1.94763.66767,2.92108q.34575,1.50348.69169,3.00676c.1269.55188.24825,1.10484.38214,1.65493A1.42953,1.42953,0,0,1,249.65356,202.78643Z"/><path class="cls-2" d="M239.2329,193.45734a7.28586,7.28586,0,0,0-.10255-.92361.78366.78366,0,0,1,.02417-.37143.43858.43858,0,0,1,.441-.31055.46478.46478,0,0,1,.40161.40674,2.09066,2.09066,0,0,1-.04309.57728,5.001,5.001,0,0,0-.06484.72971.33039.33039,0,0,0,.11242.27995c.05275.04212.04481.10167.04418.157-.00058.0519.01683.07359.07037.079a5.63511,5.63511,0,0,1,3.08042,1.3029,4.2685,4.2685,0,0,1,.39946.37241c.04236.04528.07522.06011.12449.01159a.24006.24006,0,0,1,.21151-.07044.28087.28087,0,0,0,.21356-.07329,4.78009,4.78009,0,0,0,.60145-.57481,2.21442,2.21442,0,0,1,.30325-.29076.4992.4992,0,0,1,.37514-.11341.39444.39444,0,0,1,.35168.28932.46406.46406,0,0,1-.15571.49188,1.70388,1.70388,0,0,1-.3468.23551,4.47106,4.47106,0,0,0-.73663.48877.28582.28582,0,0,0-.11678.23064c.00166.07419-.06187.09855-.103.1368a.07533.07533,0,0,0-.01362.118,5.59422,5.59422,0,0,1,.847,2.20109,5.31093,5.31093,0,0,1,.025,1.55132c-.00921.06848.00413.11019.07891.11722a.17287.17287,0,0,1,.13421.09118c.0968.15568.2654.15655.41738.18608.28722.05581.58043.06063.87049.09254a.663.663,0,0,1,.40808.16141.41321.41321,0,0,1,.10492.4961.47647.47647,0,0,1-.47905.2447,1.72556,1.72556,0,0,1-.39352-.11321,4.85366,4.85366,0,0,0-.85485-.28374.30542.30542,0,0,0-.28014.04692.13886.13886,0,0,1-.14392.01113c-.06925-.02135-.09246.0008-.11363.06492a5.64224,5.64224,0,0,1-2.40491,3.02626c-.06454.03938-.07377.07236-.03868.13117a.17744.17744,0,0,1,.0072.176.27018.27018,0,0,0,.02442.23242,4.89925,4.89925,0,0,0,.45419.75839,1.10376,1.10376,0,0,1,.2381.4939.432.432,0,0,1-.25969.47223.4523.4523,0,0,1-.517-.16252,1.27305,1.27305,0,0,1-.18947-.4218,5.23224,5.23224,0,0,0-.30716-.83735.32931.32931,0,0,0-.22473-.20044c-.06361-.01473-.07389-.07415-.09776-.11942-.02342-.04442-.04425-.05773-.09576-.03856a5.55293,5.55293,0,0,1-2.28357.333,5.28945,5.28945,0,0,1-1.55888-.3274c-.0853-.032-.13217-.02418-.162.06293a.14437.14437,0,0,1-.1138.10039.27253.27253,0,0,0-.16736.13886,2.38084,2.38084,0,0,0-.17219.39164c-.10839.2708-.157.56264-.29031.82419a.47157.47157,0,0,1-.44691.28938.43173.43173,0,0,1-.37536-.58958,1.318,1.318,0,0,1,.191-.36241,5.24977,5.24977,0,0,0,.48491-.80247.26183.26183,0,0,0,.02373-.22377.22766.22766,0,0,1,.02007-.219c.02642-.04825.01847-.07575-.0316-.10674a5.604,5.604,0,0,1-2.42166-3.02237c-.02173-.06311-.05762-.07-.10582-.05419a.21638.21638,0,0,1-.19446-.02832.35048.35048,0,0,0-.28448-.01882,5.4349,5.4349,0,0,0-.80314.26987,1.21209,1.21209,0,0,1-.4734.11745.42709.42709,0,0,1-.19121-.82032,1.01738,1.01738,0,0,1,.38862-.09251,5.76911,5.76911,0,0,0,.97425-.12176.327.327,0,0,0,.20366-.13325.216.216,0,0,1,.1573-.10472c.07353-.008.08661-.05119.07562-.1177a4.05347,4.05347,0,0,1-.04887-.64178,5.60961,5.60961,0,0,1,.89606-3.10658c.03712-.05814.04723-.09775-.01673-.13757a.211.211,0,0,1-.09194-.16429.29975.29975,0,0,0-.11572-.19458,4.57023,4.57023,0,0,0-.72284-.47769,2.05516,2.05516,0,0,1-.34845-.23363.45086.45086,0,0,1-.01329-.70748.48184.48184,0,0,1,.56756.0243,2.14473,2.14473,0,0,1,.31686.30233,4.88688,4.88688,0,0,0,.58765.56342.33243.33243,0,0,0,.28909.08495c.06278-.01423.09637.02811.13253.0579.05157.04248.081.03252.12484-.01277a5.59151,5.59151,0,0,1,3.3103-1.6553c.02953-.00362.05862-.01139.0882-.01391.15512-.01323.15541-.01282.17381-.16088a.06936.06936,0,0,1,.01755-.04876A.45583.45583,0,0,0,239.2329,193.45734Z"/><path class="cls-27" d="M241.50683,200.84438q.32131.05364.64263.10732.77031.1298,1.54064.25953c.11764.01958.11925.01712.07675.126a4.4563,4.4563,0,0,1-1.70215,2.12195c-.04531.03052-.06516.03313-.08867-.02409-.27711-.67485-.55842-1.348-.83485-2.02309a.38294.38294,0,0,1,.23158-.54881A1.294,1.294,0,0,1,241.50683,200.84438Z"/><path class="cls-27" d="M239.00823,195.33405q-.06,1.05908-.12063,2.12378a.394.394,0,0,1-.6451.328q-.89108-.63-1.78132-1.26114c-.04761-.03359-.04781-.05149-.00564-.091a4.46494,4.46494,0,0,1,2.27985-1.15528c.06144-.01144.12311-.02159.18451-.03321C238.99062,195.23181,239.03221,195.24811,239.00823,195.33405Z"/><path class="cls-27" d="M237.54809,199.14636a.393.393,0,0,1-.31825.40055c-.6914.20184-1.384.39948-2.07568.60045-.04906.01425-.067.01187-.072-.0458a4.44133,4.44133,0,0,1,.5964-2.686c.02114-.03634.0304-.08526.092-.02966.5339.48218,1.07109.96073,1.60587,1.442A.40217.40217,0,0,1,237.54809,199.14636Z"/><path class="cls-27" d="M244.04573,200.1567c-.28189-.081-.5583-.16039-.83467-.23988q-.64286-.18489-1.28552-.37051a.54625.54625,0,0,1-.229-.11576.36471.36471,0,0,1-.01875-.53493c.21162-.20575.43369-.40083.65317-.59838.33265-.29941.66831-.59549.99923-.89677.05907-.05378.07744-.03821.11231.02161a4.539,4.539,0,0,1,.59181,1.7639A4.34136,4.34136,0,0,1,244.04573,200.1567Z"/><path class="cls-27" d="M239.61386,204.20923a4.74361,4.74361,0,0,1-1.417-.21606c-.057-.01813-.06536-.03423-.03506-.08868.35038-.62962.69629-1.26174,1.04718-1.89107a.388.388,0,0,1,.72016.01026c.353.62806.69887,1.26012,1.0492,1.88968.02569.04617.021.06416-.031.08013a4.62921,4.62921,0,0,1-1.02288.19787C239.80256,204.20036,239.68086,204.21341,239.61386,204.20923Z"/><path class="cls-27" d="M237.63851,200.85542a.37918.37918,0,0,1,.37454.46387,5.739,5.739,0,0,1-.2885.73954c-.18237.44977-.37224.89651-.55375,1.34662-.03156.07826-.05691.07392-.11733.03243a4.49478,4.49478,0,0,1-1.68624-2.11424c-.02319-.05946-.03679-.08508.05064-.09942.68727-.11267,1.37327-.233,2.0598-.35023C237.53339,200.86448,237.59011,200.86088,237.63851,200.85542Z"/><path class="cls-27" d="M240.1204,195.37063a.25061.25061,0,0,0-.00038-.04471c-.01418-.07691.02239-.09061.08976-.08021a4.53859,4.53859,0,0,1,2.43336,1.17641c.05167.04822.05744.071-.005.11491q-.85988.605-1.71615,1.21505a.44225.44225,0,0,1-.41744.09533.3559.3559,0,0,1-.256-.32346c-.02364-.28538-.03816-.57154-.05431-.8575-.0244-.43193-.04692-.864-.07024-1.296Z"/><path class="cls-27" d="M239.61025,198.98851c.22472-.07713.3923.05907.52318.27459a.47055.47055,0,0,0,.0889.11164.28867.28867,0,0,1,.08125.3414,4.38792,4.38792,0,0,0-.1038.43313.09977.09977,0,0,1-.06273.07762c-.17479.08292-.34939.16627-.52292.25177a.10108.10108,0,0,1-.1-.00074q-.26014-.12825-.52308-.25082a.1131.1131,0,0,1-.06786-.08534q-.06257-.27375-.12616-.54726a.13063.13063,0,0,1,.02831-.12348c.11983-.14456.2369-.29143.353-.439a.10083.10083,0,0,1,.09-.04425C239.36678,198.99011,239.46526,198.98851,239.61025,198.98851Z"/><path class="cls-25" d="M320.83183,69.63239c-.60388.73607-1.19551,1.482-1.79209,2.224q-.84717,1.05356-1.69361,2.10712-.94259,1.17266-1.88516,2.34508c-.39513.49173-.78154.99077-1.18751,1.47331a1.69937,1.69937,0,0,1-1.33123.64135c-1.79422.00636-3.58843.00235-5.38265.00235v.00377c-1.72353,0-3.4473-.00872-5.17059.00448a1.97937,1.97937,0,0,1-1.66557-.819c-.65266-.83244-1.32228-1.65144-1.98483-2.47586q-.95354-1.18644-1.90779-2.37241-1.03907-1.29107-2.07883-2.58141c-.19651-.2441-.40149-.48231-.58457-.7363a1.82261,1.82261,0,0,1-.27237-1.55177q.56512-2.43085,1.12059-4.86382c.40809-1.77325.81264-3.5472,1.22638-5.319a1.69346,1.69346,0,0,1,.94388-1.17832c1.17219-.57019,2.3498-1.12907,3.52576-1.691q2.87864-1.37588,5.758-2.74916a2.85016,2.85016,0,0,1,.77211-.29476,1.88056,1.88056,0,0,1,1.1312.15409q1.71659.81924,3.43222,1.63966c1.9886.94953,3.9739,1.90589,5.96815,2.84365a2.01949,2.01949,0,0,1,1.18185,1.49781c.2785,1.28293.58362,2.5602.87767,3.83983q.4545,1.97636.90924,3.95246c.16682.72546.32633,1.45234.50233,2.17544A1.87913,1.87913,0,0,1,320.83183,69.63239Z"/><path class="cls-26" d="M320.83183,69.63239c-.60388.73607-1.19551,1.482-1.79209,2.224q-.84717,1.05356-1.69361,2.10712-.94259,1.17266-1.88516,2.34508c-.39513.49173-.78154.99077-1.18751,1.47331a1.69937,1.69937,0,0,1-1.33123.64135c-1.79422.00636-3.58843.00235-5.38265.00235v.00377c-1.72353,0-3.4473-.00872-5.17059.00448a1.97937,1.97937,0,0,1-1.66557-.819c-.65266-.83244-1.32228-1.65144-1.98483-2.47586q-.95354-1.18644-1.90779-2.37241-1.03907-1.29107-2.07883-2.58141c-.19651-.2441-.40149-.48231-.58457-.7363a1.82261,1.82261,0,0,1-.27237-1.55177q.56512-2.43085,1.12059-4.86382c.40809-1.77325.81264-3.5472,1.22638-5.319a1.69346,1.69346,0,0,1,.94388-1.17832c1.17219-.57019,2.3498-1.12907,3.52576-1.691q2.87864-1.37588,5.758-2.74916a2.85016,2.85016,0,0,1,.77211-.29476,1.88056,1.88056,0,0,1,1.1312.15409q1.71659.81924,3.43222,1.63966c1.9886.94953,3.9739,1.90589,5.96815,2.84365a2.01949,2.01949,0,0,1,1.18185,1.49781c.2785,1.28293.58362,2.5602.87767,3.83983q.4545,1.97636.90924,3.95246c.16682.72546.32633,1.45234.50233,2.17544A1.87913,1.87913,0,0,1,320.83183,69.63239Z"/><path class="cls-2" d="M307.13362,57.36908a9.5788,9.5788,0,0,0-.13481-1.21412,1.03,1.03,0,0,1,.03177-.48825.57652.57652,0,0,1,.57972-.40822.61094.61094,0,0,1,.52792.53467,2.74805,2.74805,0,0,1-.05664.75884,6.57256,6.57256,0,0,0-.08523.95923.43427.43427,0,0,0,.14778.368c.06933.05536.05889.13364.05807.20632-.00077.06823.02212.09674.0925.10389a7.40738,7.40738,0,0,1,4.04929,1.7127,5.61075,5.61075,0,0,1,.52511.48954c.05567.05952.09888.079.16363.01523a.31556.31556,0,0,1,.27805-.09259.36924.36924,0,0,0,.28072-.09634,6.28347,6.28347,0,0,0,.79063-.75561,2.91016,2.91016,0,0,1,.39863-.3822.65611.65611,0,0,1,.49313-.14908.51846.51846,0,0,1,.46228.38031.61.61,0,0,1-.20467.64659,2.23972,2.23972,0,0,1-.45588.30958,5.87751,5.87751,0,0,0-.96832.64251.37569.37569,0,0,0-.15352.30318c.00218.09753-.08132.12954-.13545.17983a.099.099,0,0,0-.01791.1551,7.35357,7.35357,0,0,1,1.11341,2.8934,6.98159,6.98159,0,0,1,.03289,2.03925c-.01211.09.00542.14485.10373.15408a.22727.22727,0,0,1,.17642.11986c.12724.20465.34888.2058.54865.24462.37756.07336.763.07969,1.14429.12164a.87138.87138,0,0,1,.53642.21218.54316.54316,0,0,1,.13793.65213.62633.62633,0,0,1-.62973.32166,2.26778,2.26778,0,0,1-.51728-.14882,6.38018,6.38018,0,0,0-1.12373-.373.40144.40144,0,0,0-.36825.06167.18254.18254,0,0,1-.18918.01464c-.091-.02808-.12155.001-.14938.08533a7.41689,7.41689,0,0,1-3.16132,3.9781c-.08483.05176-.097.09511-.05083.17242a.23331.23331,0,0,1,.00946.23141.35519.35519,0,0,0,.03209.30553,6.44261,6.44261,0,0,0,.597.99692,1.45081,1.45081,0,0,1,.313.64924.56782.56782,0,0,1-.34137.62076.59455.59455,0,0,1-.67954-.21364,1.6732,1.6732,0,0,1-.24907-.55447,6.879,6.879,0,0,0-.40376-1.10071.43292.43292,0,0,0-.29542-.26349c-.08362-.01935-.09714-.09747-.12851-.157-.03078-.05839-.05817-.07589-.12587-.05068a7.29966,7.29966,0,0,1-3.00181.43768,6.95366,6.95366,0,0,1-2.0492-.43037c-.11213-.04209-.17374-.03179-.21289.08272a.18979.18979,0,0,1-.1496.132.35823.35823,0,0,0-.22.18254,3.12916,3.12916,0,0,0-.22636.51482c-.14248.356-.20637.7396-.38162,1.08342a.61992.61992,0,0,1-.58747.3804.56753.56753,0,0,1-.49342-.775,1.73265,1.73265,0,0,1,.251-.47639,6.9003,6.9003,0,0,0,.63744-1.05487.34422.34422,0,0,0,.03119-.29415.29929.29929,0,0,1,.02639-.28785c.03472-.06342.02427-.09957-.04155-.1403a7.3666,7.3666,0,0,1-3.18334-3.973c-.02856-.083-.07573-.09195-.1391-.07123a.28444.28444,0,0,1-.25562-.03723.46073.46073,0,0,0-.374-.02474,7.14451,7.14451,0,0,0-1.05574.35475,1.593,1.593,0,0,1-.6223.15439.56141.56141,0,0,1-.25135-1.07832,1.33716,1.33716,0,0,1,.51085-.12161,7.58324,7.58324,0,0,0,1.28068-.16006.43.43,0,0,0,.26772-.17516.28393.28393,0,0,1,.20676-.13766c.09666-.01054.11385-.06729.09942-.15472a5.32786,5.32786,0,0,1-.06424-.84364,7.37383,7.37383,0,0,1,1.17789-4.08367c.04879-.07643.06209-.1285-.022-.18084a.27731.27731,0,0,1-.12087-.216.394.394,0,0,0-.15211-.25578,6.00586,6.00586,0,0,0-.9502-.62793,2.70206,2.70206,0,0,1-.458-.30712.59266.59266,0,0,1-.01747-.93.63338.63338,0,0,1,.74608.03194,2.81967,2.81967,0,0,1,.41651.39742,6.425,6.425,0,0,0,.77249.74064.437.437,0,0,0,.38.11166c.08253-.01871.12669.03695.17422.07611.06779.05585.10648.04275.1641-.01678a7.35013,7.35013,0,0,1,4.35147-2.17594c.03882-.00475.07706-.015.11594-.01829.20391-.01738.2043-.01685.22848-.21148a.09116.09116,0,0,1,.02308-.06409A.59923.59923,0,0,0,307.13362,57.36908Z"/><path class="cls-27" d="M310.12275,67.07952q.42238.0705.84475.14108,1.01261.17061,2.02521.34115c.15464.02575.15676.02251.10089.16565a5.858,5.858,0,0,1-2.23751,2.78936c-.05957.04011-.08567.04355-.11656-.03167-.36428-.8871-.73406-1.77194-1.09744-2.6594a.5034.5034,0,0,1,.30442-.72143A1.70455,1.70455,0,0,1,310.12275,67.07952Z"/><path class="cls-27" d="M306.83828,59.83606q-.07895,1.39216-.15857,2.79176a.5179.5179,0,0,1-.848.43116q-1.17133-.82812-2.34158-1.6578c-.06259-.04416-.06285-.06768-.00742-.11961a5.86933,5.86933,0,0,1,2.99693-1.51864c.08075-.015.16182-.02838.24253-.04366C306.81513,59.70166,306.8698,59.72308,306.83828,59.83606Z"/><path class="cls-27" d="M304.91889,64.84744a.51661.51661,0,0,1-.41836.52653c-.90886.26532-1.81933.52512-2.72853.7893-.06449.01874-.088.01561-.09471-.0602a5.83831,5.83831,0,0,1,.784-3.53085c.02779-.04777.04-.11206.12088-.039.70184.63384,1.408,1.2629,2.111,1.89549A.52869.52869,0,0,1,304.91889,64.84744Z"/><path class="cls-27" d="M313.4602,66.17555c-.37056-.10649-.7339-.21083-1.0972-.31532q-.84506-.24306-1.68984-.487a.71809.71809,0,0,1-.30108-.15217.47942.47942,0,0,1-.02464-.70318c.27818-.27047.5701-.5269.85861-.78659.43728-.39357.8785-.78278,1.31351-1.17883.07765-.07069.10179-.05023.14764.02842a5.96678,5.96678,0,0,1,.778,2.31869A5.708,5.708,0,0,1,313.4602,66.17555Z"/><path class="cls-27" d="M307.63439,71.5027a6.23577,6.23577,0,0,1-1.86273-.284c-.075-.02384-.08593-.045-.04609-.11657.46059-.82766.91529-1.65859,1.37655-2.48587a.51.51,0,0,1,.94666.0135c.464.82559.91868,1.65645,1.3792,2.484.03377.06069.02757.08433-.0407.10533a6.0862,6.0862,0,0,1-1.34459.26011C307.88244,71.491,307.72247,71.50819,307.63439,71.5027Z"/><path class="cls-27" d="M305.03775,67.094a.49846.49846,0,0,1,.49234.60978,7.54516,7.54516,0,0,1-.37924.97214c-.23973.59123-.48933,1.17848-.72792,1.77017-.04149.10287-.07481.09716-.15424.04262a5.90845,5.90845,0,0,1-2.2166-2.77922c-.03048-.07816-.04837-.11184.06657-.13068.90343-.14811,1.8052-.30633,2.70766-.4604C304.89956,67.10594,304.97413,67.10121,305.03775,67.094Z"/><path class="cls-27" d="M308.30026,59.88414a.32921.32921,0,0,0-.00051-.05878c-.01864-.10109.02944-.1191.118-.10543a5.96614,5.96614,0,0,1,3.19871,1.54643c.06792.06338.0755.09334-.00653.151q-1.13033.79524-2.25592,1.59721a.58138.58138,0,0,1-.54873.12532.46785.46785,0,0,1-.33654-.42521c-.03108-.37513-.05017-.7513-.0714-1.1272-.03207-.56779-.06167-1.13571-.09233-1.70357Z"/><path class="cls-27" d="M307.62965,64.63994c.29539-.1014.51569.07765.68773.361a.61918.61918,0,0,0,.11685.14676.37942.37942,0,0,1,.10681.44877,5.77107,5.77107,0,0,0-.13644.56936.13115.13115,0,0,1-.08247.102c-.22976.109-.45927.21856-.68738.331a.13284.13284,0,0,1-.1314-.001q-.342-.16859-.6876-.32971a.14862.14862,0,0,1-.08921-.11218q-.08224-.35985-.16584-.71939a.17171.17171,0,0,1,.03722-.16231c.15751-.19.31141-.38309.464-.57712a.13254.13254,0,0,1,.11835-.05817C307.3096,64.642,307.43906,64.63994,307.62965,64.63994Z"/><path class="cls-25" d="M269.19989,153.57537c-.98264,1.19772-1.94533,2.41153-2.91608,3.61884q-1.37849,1.71434-2.75583,3.42868-1.53377,1.90813-3.06752,3.8159c-.64295.80014-1.27171,1.61217-1.9323,2.39735a2.76511,2.76511,0,0,1-2.16616,1.0436c-2.91954.01035-5.83907.00383-8.75861.00383v.00614c-2.80451,0-5.60941-.01419-8.41354.00728a3.2208,3.2208,0,0,1-2.7102-1.33267c-1.062-1.35453-2.1516-2.6872-3.2297-4.02869q-1.55158-1.93058-3.10433-3.86038-1.69076-2.1008-3.38267-4.20044c-.31975-.3972-.6533-.78481-.95119-1.19811a2.96569,2.96569,0,0,1-.44321-2.525q.91957-3.95546,1.82342-7.91437c.664-2.88541,1.32232-5.772,1.99555-8.65508a2.75566,2.75566,0,0,1,1.53587-1.91735c1.90738-.92781,3.82358-1.83721,5.73709-2.7516q4.6841-2.23883,9.36934-4.47342a4.63717,4.63717,0,0,1,1.25638-.47963,3.06,3.06,0,0,1,1.84066.25074q2.79321,1.33305,5.58488,2.668c3.23584,1.54507,6.4663,3.10126,9.71133,4.62716a3.28616,3.28616,0,0,1,1.9231,2.43722c.45317,2.08758.94966,4.16595,1.42813,6.24815q.73957,3.2159,1.47952,6.43141c.27144,1.18046.531,2.36323.81739,3.53986A3.05773,3.05773,0,0,1,269.19989,153.57537Z"/><path class="cls-26" d="M269.19989,153.57537c-.98264,1.19772-1.94533,2.41153-2.91608,3.61884q-1.37849,1.71434-2.75583,3.42868-1.53377,1.90813-3.06752,3.8159c-.64295.80014-1.27171,1.61217-1.9323,2.39735a2.76511,2.76511,0,0,1-2.16616,1.0436c-2.91954.01035-5.83907.00383-8.75861.00383v.00614c-2.80451,0-5.60941-.01419-8.41354.00728a3.2208,3.2208,0,0,1-2.7102-1.33267c-1.062-1.35453-2.1516-2.6872-3.2297-4.02869q-1.55158-1.93058-3.10433-3.86038-1.69076-2.1008-3.38267-4.20044c-.31975-.3972-.6533-.78481-.95119-1.19811a2.96569,2.96569,0,0,1-.44321-2.525q.91957-3.95546,1.82342-7.91437c.664-2.88541,1.32232-5.772,1.99555-8.65508a2.75566,2.75566,0,0,1,1.53587-1.91735c1.90738-.92781,3.82358-1.83721,5.73709-2.7516q4.6841-2.23883,9.36934-4.47342a4.63717,4.63717,0,0,1,1.25638-.47963,3.06,3.06,0,0,1,1.84066.25074q2.79321,1.33305,5.58488,2.668c3.23584,1.54507,6.4663,3.10126,9.71133,4.62716a3.28616,3.28616,0,0,1,1.9231,2.43722c.45317,2.08758.94966,4.16595,1.42813,6.24815q.73957,3.2159,1.47952,6.43141c.27144,1.18046.531,2.36323.81739,3.53986A3.05773,3.05773,0,0,1,269.19989,153.57537Z"/><path class="cls-2" d="M246.91027,133.6206a15.58624,15.58624,0,0,0-.21936-1.9756,1.67583,1.67583,0,0,1,.0517-.79447.9381.9381,0,0,1,.94331-.66426.99413.99413,0,0,1,.859.87,4.47127,4.47127,0,0,1-.09217,1.23478,10.69536,10.69536,0,0,0-.13868,1.56085.70667.70667,0,0,0,.24047.5988c.11281.09009.09583.21746.0945.33573-.00126.111.036.15742.1505.169a12.05332,12.05332,0,0,1,6.589,2.78689,9.13048,9.13048,0,0,1,.85445.79658c.09059.09684.16089.12858.26626.02478a.51354.51354,0,0,1,.45244-.15067.60075.60075,0,0,0,.45679-.15675,10.22562,10.22562,0,0,0,1.2865-1.22952,4.73554,4.73554,0,0,1,.64865-.62193,1.06769,1.06769,0,0,1,.80242-.24258.84369.84369,0,0,1,.75222.61885.99263.99263,0,0,1-.33305,1.05212,3.64449,3.64449,0,0,1-.74179.50375,9.56322,9.56322,0,0,0-1.57565,1.04548.6113.6113,0,0,0-.2498.49333c.00355.1587-.13232.21079-.22042.29262a.16113.16113,0,0,0-.02914.25239,11.96586,11.96586,0,0,1,1.81175,4.7081,11.36068,11.36068,0,0,1,.0535,3.31826c-.01969.14647.00882.2357.16879.25072a.36979.36979,0,0,1,.28707.195c.207.333.56769.33486.89277.398.61436.11938,1.24153.12968,1.862.19794a1.41806,1.41806,0,0,1,.87287.34525.88383.88383,0,0,1,.22442,1.06114,1.01915,1.01915,0,0,1-1.02468.52341,3.6909,3.6909,0,0,1-.84172-.24215,10.382,10.382,0,0,0-1.82852-.60691.65328.65328,0,0,0-.59922.10035.297.297,0,0,1-.30783.02382c-.14813-.04568-.19778.0017-.24307.13885a12.06861,12.06861,0,0,1-5.14407,6.47313c-.138.08424-.15779.15477-.08272.28057a.37959.37959,0,0,1,.0154.37654.57794.57794,0,0,0,.05223.49716,10.48117,10.48117,0,0,0,.9715,1.62218,2.36073,2.36073,0,0,1,.5093,1.05643.924.924,0,0,1-.55548,1.01011.96747.96747,0,0,1-1.10574-.34764,2.72242,2.72242,0,0,1-.40527-.90223,11.19443,11.19443,0,0,0-.657-1.79107.70443.70443,0,0,0-.4807-.42875c-.13606-.03148-.15806-.15859-.20911-.25543-.05009-.095-.09465-.12348-.20482-.08247a11.87777,11.87777,0,0,1-4.88452.7122,11.3144,11.3144,0,0,1-3.33443-.70031c-.18246-.06847-.28271-.05172-.34643.13461a.30879.30879,0,0,1-.24342.21472.583.583,0,0,0-.358.297,5.09136,5.09136,0,0,0-.36832.83771c-.23185.57923-.33581,1.20348-.621,1.76293a1.00871,1.00871,0,0,1-.95592.619.92345.92345,0,0,1-.80289-1.26111,2.81873,2.81873,0,0,1,.40849-.77518,11.22857,11.22857,0,0,0,1.03722-1.71648.5601.5601,0,0,0,.05076-.47864.487.487,0,0,1,.04294-.46838c.0565-.10319.03949-.162-.06761-.22829a11.98687,11.98687,0,0,1-5.1799-6.46482c-.04647-.135-.12323-.14963-.22635-.11592a.46278.46278,0,0,1-.41593-.06057.74977.74977,0,0,0-.60851-.04026,11.62747,11.62747,0,0,0-1.7179.57725,2.592,2.592,0,0,1-1.01259.25123.91352.91352,0,0,1-.409-1.75464,2.17588,2.17588,0,0,1,.83126-.19789,12.33913,12.33913,0,0,0,2.08391-.26045.69951.69951,0,0,0,.43562-.285.462.462,0,0,1,.33645-.224c.15728-.01715.18526-.1095.16177-.25176a8.67028,8.67028,0,0,1-.10454-1.37276,11.99866,11.99866,0,0,1,1.91666-6.64491c.07939-.12437.101-.20909-.03579-.29427a.45124.45124,0,0,1-.19666-.35141.64112.64112,0,0,0-.24753-.4162,9.77442,9.77442,0,0,0-1.54614-1.02177,4.39557,4.39557,0,0,1-.74532-.49974.96437.96437,0,0,1-.02844-1.51329,1.03066,1.03066,0,0,1,1.214.052,4.58855,4.58855,0,0,1,.67775.64667,10.45172,10.45172,0,0,0,1.257,1.20517.71109.71109,0,0,0,.61835.18169c.1343-.03044.20614.06013.28348.12385.11031.09087.17327.06955.267-.02731a11.96005,11.96005,0,0,1,7.08068-3.54066c.06316-.00774.12539-.02437.18865-.02977.3318-.02828.33243-.02741.37178-.34412a.14837.14837,0,0,1,.03756-.10429A.975.975,0,0,0,246.91027,133.6206Z"/><path class="cls-27" d="M251.77416,149.42136q.6873.11472,1.37458.22956,1.64769.27762,3.2954.55512c.25163.0419.25507.03662.16417.26954a9.532,9.532,0,0,1-3.64087,4.53882c-.09693.06528-.13939.07087-.18966-.05153-.59274-1.44348-1.19446-2.88329-1.78575-4.32736a.81912.81912,0,0,1,.49535-1.17389A2.77006,2.77006,0,0,1,251.77416,149.42136Z"/><path class="cls-27" d="M246.4297,137.63485q-.12846,2.26533-.258,4.54274a.84272.84272,0,0,1-1.37987.70157q-1.906-1.34751-3.81021-2.69755c-.10184-.07185-.10227-.11012-.01207-.19463a9.55042,9.55042,0,0,1,4.87657-2.47111c.1314-.02447.26333-.04618.39465-.07105C246.392,137.41617,246.481,137.451,246.4297,137.63485Z"/><path class="cls-27" d="M243.30648,145.78933a.84062.84062,0,0,1-.68075.85676c-1.47889.43174-2.9604.85448-4.43984,1.28436-.10493.03048-.14323.02539-.15412-.098a9.50006,9.50006,0,0,1,1.2757-5.74536c.04522-.07773.065-.18236.19669-.06344,1.142,1.03138,2.29106,2.055,3.43494,3.08433A.86027.86027,0,0,1,243.30648,145.78933Z"/><path class="cls-27" d="M257.20483,147.95043c-.603-.17328-1.19419-.34307-1.78535-.5131q-1.37506-.39549-2.7497-.79252a1.16839,1.16839,0,0,1-.48991-.2476.78013.78013,0,0,1-.04009-1.14422c.45264-.4401.92765-.85737,1.39713-1.27992.71153-.64043,1.42948-1.27375,2.13733-1.91819.12635-.115.16563-.08173.24022.04624a9.709,9.709,0,0,1,1.26589,3.773A9.28755,9.28755,0,0,1,257.20483,147.95043Z"/><path class="cls-27" d="M247.72512,156.61873a10.14744,10.14744,0,0,1-3.031-.46215c-.12195-.03879-.13981-.07322-.075-.18969.74946-1.34675,1.48935-2.69883,2.2399-4.045a.82985.82985,0,0,1,1.5404.022c.75507,1.3434,1.49488,2.69537,2.24423,4.042.05495.09875.04485.13723-.06622.17139a9.9031,9.9031,0,0,1-2.18792.42325C248.12875,156.59975,247.86845,156.62766,247.72512,156.61873Z"/><path class="cls-27" d="M243.49989,149.445a.81107.81107,0,0,1,.80113.99223,12.27745,12.27745,0,0,1-.61709,1.58185c-.39009.96205-.79623,1.91761-1.18447,2.8804-.0675.1674-.12173.1581-.251.06937a9.61436,9.61436,0,0,1-3.60683-4.52234c-.04959-.12717-.0787-.182.10832-.21264,1.47005-.241,2.93741-.49846,4.40588-.74915C243.275,149.46435,243.39636,149.45665,243.49989,149.445Z"/><path class="cls-27" d="M248.80861,137.71309a.53611.53611,0,0,0-.00081-.09564c-.03034-.1645.04789-.19379.192-.17155a9.708,9.708,0,0,1,5.20493,2.51632c.11051.10315.12284.15189-.01063.24579q-1.83926,1.294-3.67081,2.599a.946.946,0,0,1-.89289.20392.76126.76126,0,0,1-.54762-.69189c-.05058-.61042-.08164-1.22252-.11618-1.83418-.05218-.92389-.10036-1.848-.15023-2.772Z"/><path class="cls-27" d="M247.71741,145.45169c.48066-.165.83912.12635,1.11907.58733a1.00688,1.00688,0,0,0,.19014.23881.6174.6174,0,0,1,.1738.73024,9.3931,9.3931,0,0,0-.222.92646.21341.21341,0,0,1-.13419.166c-.37386.17737-.74733.35563-1.11851.53852a.21618.21618,0,0,1-.2138-.00158q-.55647-.27433-1.11886-.53651a.24185.24185,0,0,1-.14516-.18254q-.13383-.58554-.26985-1.17058a.27939.27939,0,0,1,.06055-.26411c.25631-.30921.50673-.62337.755-.93909a.21573.21573,0,0,1,.19258-.09465C247.19663,145.45511,247.40728,145.45169,247.71741,145.45169Z"/><path class="cls-28" d="M58.36451,244.35182c-.05522.74526-.11734,1.49051-.17251,2.24263-1.78031,2.30475-3.56063,4.60259-5.58244,7.22473-1.22816-2.89792-4.19494-4.57462-3.55384-7.99669,1.76869-1.07772,3.28274.08179,4.85794.5802,1.70093.53817,2.56983.19475,2.52645-1.81535-.07075-3.27836.28867-6.57487-.56823-9.80652-.22166-1.09428-.16358-2.54423-1.98155-1.31257a26.67167,26.67167,0,0,1-2.92529,1.63762c-2.44732,1.24093-3.416,2.87665-1.52008,5.34132l0,0c-.45153.91667-1.61378.48359-2.19373,1.15556l-.0008-.0003c-4.73639-1.923-8.45146-.27161-11.6132,3.31715l-.00257-.002c-3.07068,2.89127-4.49906,6.70029-5.86533,10.53-2.09774,4.34037-1.22829,8.14245,1.9735,11.61337a46.31745,46.31745,0,0,1,5.99644,7.62492c-3.43642.57274-6.54846,1.08337-9.67436,1.6009h-.00379l.00085-.00064c-.20141-1.43192-.75094-2.083-2.15545-1.01867-1.31728.99825-2.66506,1.95623-3.99881,2.9322a12.97336,12.97336,0,0,0,4.76335.03041c.00034-.04721.00961-.088.01314-.13292a.60266.60266,0,0,0,.09034.13553,4.06318,4.06318,0,0,0,.37952.43473c4.851.10348,9.70194.01377,14.56671.04831a3.1797,3.1797,0,0,0,1.62162-.54516c.483.00691.966.00691,1.44215.01381q4.161.01036,8.32878.02759a5.14753,5.14753,0,0,0-1.01434-1.00052,9.84259,9.84259,0,0,0-3.88492-1.5664c-.22082-.05522-.44854-.10353-.66936-.1587a.00675.00675,0,0,1-.00686-.00691c1.29036-4.24375,2.59451-8.4806,3.8642-12.73122,1.035-3.47779.36574-4.36106-3.2087-4.31966-3.30527.04141-6.56224.95917-9.89514.51753a5.86114,5.86114,0,0,0,1.58018-1.05573c-.23459.02068-.46922.03449-.70381.04826a2.34359,2.34359,0,0,1-.31744-.06208c.0759-.14492.16561-.28294.25531-.42091,4.53357-6.65889,4.9752-6.7072,10.69561-1.1524,3.10517,3.01547,3.40189,2.99479,5.72731-.76593,1.49738-2.429,2.89127-4.92,4.32656-7.37652.11039.00691.22082.00691.3243.00691.01381-.09662.02763-.19323.03453-.29671l-.02072-.0414c.79356-.80047,1.594-1.594,2.38755-2.38065.0828.0414.1587.08971.2415.13111,0-.11729,0-.24149-.00691-.36574C61.91128,241.97809,60.25521,242.57155,58.36451,244.35182Zm-12.41384,19.535a47.75985,47.75985,0,0,0-.47613,12.24133,2.3906,2.3906,0,0,0-.17937.207,2.32789,2.32789,0,0,0-.43473,1.07646,4.28072,4.28072,0,0,0-1.09718.3243c-.345.14492-.69.30362-1.042.42782,1.594-2.53934-.31052-4.65085-.98675-6.81754C40.03017,265.92245,39.91283,265.95694,45.95067,263.88682Z"/><path class="cls-28" d="M51.20877,258.32511a3.60509,3.60509,0,0,0,1.111.56584,3.95486,3.95486,0,0,0-2.49107-1.525C50.291,257.68338,50.75336,257.99391,51.20877,258.32511Z"/><path class="cls-26" d="M47.50438,325.77248l-9.30469,9.7002v17.5205h-15.936V283.70412h15.936v32.36816l30.68506-32.36816H86.70213L57.99656,314.58791l30.38819,38.40527h-18.708Z"/><path class="cls-26" d="M139.65428,352.99318l-13.3628-19.30175H111.543v19.30175H95.50779V283.70412h29.9917c18.51026,0,30.09131,9.60156,30.09131,25.14258,0,10.39258-5.24609,18.01465-14.25391,21.875l15.54053,22.27148Zm-15.04541-56.22265H111.543v24.15234h13.06592c9.79931,0,14.74853-4.55371,14.74853-12.07617C139.3574,301.22463,134.40818,296.77053,124.60887,296.77053Z"/><path class="cls-26" d="M168.25633,283.70412h16.03613v69.28906H168.25633Z"/><path class="cls-26" d="M200.12742,322.50588V283.70412h16.03516v38.208c0,13.165,5.74121,18.60937,15.4414,18.60937,9.79981,0,15.44141-5.44433,15.44141-18.60937v-38.208h15.83789v38.80176c0,20.39062-11.68066,31.6748-31.37793,31.6748C211.80711,354.18068,200.12742,342.8965,200.12742,322.50588Z"/><path class="cls-26" d="M273.272,346.16311l5.44434-12.07618a40.75215,40.75215,0,0,0,22.86523,7.22657c9.502,0,13.36231-3.168,13.36231-7.42383,0-12.9668-40.28613-4.0586-40.28613-29.79492,0-11.77832,9.50293-21.57813,29.20019-21.57813,8.71094,0,17.61914,2.0791,24.05274,6.13672l-4.94922,12.17578a39.124,39.124,0,0,0-19.20215-5.44434c-9.50293,0-13.165,3.56348-13.165,7.91895,0,12.76855,40.28613,3.959,40.28613,29.39746,0,11.58106-9.60156,21.47949-29.39844,21.47949C290.49559,354.18068,279.40867,350.91408,273.272,346.16311Z"/></svg>