<svg id="Layer_1" data-name="Layer 1" xmlns="http://www.w3.org/2000/svg" xmlns:xlink="http://www.w3.org/1999/xlink" viewBox="0 0 352.78803 363.26928"><defs><style>.cls-1{fill:url(#linear-gradient);}.cls-2{fill:#fefefe;}.cls-3{fill:#1f2e5e;}.cls-4{fill:#202f5f;}.cls-5{fill:#203060;}.cls-6{fill:#6f94cc;}.cls-7{fill:#223b72;}.cls-8{fill:#cddcf1;}.cls-9{fill:#010202;}.cls-10{fill:#3360ad;}.cls-11{fill:#2d589f;}.cls-12{fill:#ccdcf1;}.cls-13{fill:#6e93cc;}.cls-14{fill:#4976ba;}.cls-15{fill:#5880c1;}.cls-16{fill:#859fcd;}.cls-17{fill:#698fc9;}.cls-18{fill:#c0d4ee;}.cls-19{fill:#bfd3ee;}.cls-20{fill:#eaeaea;}.cls-21{fill:#d1d1d1;}.cls-22{fill:#203061;}.cls-23{fill:#3b67b1;}.cls-24,.cls-27{fill:#fff;}.cls-25{fill:#131025;}.cls-26{fill:#486bb2;}.cls-27{fill-rule:evenodd;}</style><linearGradient id="linear-gradient" x1="152.29384" y1="237.51995" x2="364.19185" y2="89.19134" gradientUnits="userSpaceOnUse"><stop offset="0" stop-color="#000021"/><stop offset="1" stop-color="#2b3990"/></linearGradient></defs><path class="cls-1" d="M328.64392,9.0886V224.25025a107.128,107.128,0,0,0-27.23171,2.65658c-15.00439,3.37914-30.03,1.67895-44.86431-1.89152a195.98013,195.98013,0,0,1-23.895-7.87054c-13.94881-5.32025-28.266-7.67222-43.22786-4.77475-10.4138,2.019-20.35292-.758-30.09371-4.15843a104.07275,104.07275,0,0,1-15.03981-6.76541c-3.03911-1.49481-3.25163-4.86685-4.81726-7.33928-.70842-1.11218-1.38852-2.38737-.69423-3.82545,1.97647-11.24263,5.35566-21.954,12.12107-31.33349a30.0784,30.0784,0,0,1,14.85557-11.09385c11.56143-4.03092,23.32834-7.50925,34.45051-12.71617.96349-.4534,1.90566-.94926,2.862-1.40266a27.577,27.577,0,0,0,15.79069-19.54535,114.53907,114.53907,0,0,1,6.10659-19.29738,31.255,31.255,0,0,1,17.85931-17.53342,129.30466,129.30466,0,0,0,36.56869-22.124,39.48856,39.48856,0,0,0,9.38658-11.68185,102.93178,102.93178,0,0,1,17.29962-23.1937c5.40526-5.632,12.29113-8.15393,19.43908-10.3642A28.12976,28.12976,0,0,0,328.64392,9.0886Z"/><path class="cls-2" d="M28.27009,279.72565c.0077.709-.48809,1.03012-1.18426,1.03525-.42385,0-.84772,0-1.27415-.00258-.42387,0-.8503.01542-1.27159-.00255a.99581.99581,0,0,1-1.08149-1.01214.97873.97873,0,0,1,1.06093-1.02755c.84774-.02569,1.698-.00771,2.54833-.00771C27.75887,278.7058,28.265,279.01664,28.27009,279.72565Z"/><path class="cls-2" d="M171.57972,279.77959a.98335.98335,0,0,1-1.00187.96846c-.34166.03083-.68588.01285-1.02755.01285q-68.31141,0-136.61772-.00513c-.822,0-1.97289.2466-1.996-.98131-.02312-1.34609,1.18937-1.06095,2.03969-1.06095q23.69012-.01156,47.38024-.00514h1.49c-.91966-3.50907.55744-5.39206,4.0845-5.39463,4.11019,0,8.21782-.01284,12.328.01541.68847.00515.94791-.131.94791-.894q-.03852-18.10282-.02054-36.20567a2.03,2.03,0,0,0-.07707-.37506,1.59814,1.59814,0,0,0-.38019.07706c-2.54832,1.305-2.54575,1.305-3.93809-1.1226-.55229-.96332-1.18937-1.88554-1.64921-2.8874-.40331-.87341-.84-.83489-1.567-.43157-1.67491.92993-3.38577,1.79306-5.08124,2.6819-.41615.21835-.89139.58057-1.31012.40074-1.22021-.52661-2.109.21579-3.07237.6602-3.09292,1.43087-6.17556,2.88741-9.26335,4.32855-1.43086.67048-1.80078.60112-2.54062-.81947-.429-.822-.8169-.92479-1.51305-.37505a6.44491,6.44491,0,0,1-1.10463.63965c-.64992.3288-1.18682.60625-.62936,1.51307a1.06158,1.06158,0,0,1-.51892,1.51819q-1.77636,1.01729-3.545,2.0474a1.161,1.161,0,0,1-1.75454-.45212c-1.9318-3.31643-3.83018-6.65339-5.74656-9.98008a1.14519,1.14519,0,0,1,.43671-1.74426c1.16883-.70644,2.36079-1.37178,3.545-2.05252a1.12141,1.12141,0,0,1,1.73141.465c.34681.68074.70644.54975,1.18169.21322.20808-.149.44441-.25176.6679-.3802,1.51307-.88112,1.52591-.88626.81947-2.50978-.3879-.88626-.03339-1.42316.7013-1.91895,3.2188-2.1784,6.41705-4.39019,9.62557-6.58145.48808-.33395.97874-.52919.64222-1.3615-.32883-.81177.35963-1.29215,1.007-1.70316q7.94552-5.03628,15.873-10.09566c2.87457-1.83932,5.726-3.71717,8.59288-5.56931.49322-.31856.989-.46754.73214-1.33069-.22606-.76038.614-1.13287,1.16883-1.513q8.91654-6.14219,17.84851-12.26379c.52919-.3648.99673-.64222.98131-1.46169-.01541-.76039,4.5315-3.39606,5.26619-3.16485.68588.21834.9402.85286,1.21764,1.41545a3.19487,3.19487,0,0,0,2.76668,1.94976,14.38574,14.38574,0,0,1,11.23881,19.4926,3.32723,3.32723,0,0,0,.30056,3.37807c1.043,1.65435.9325,1.92151-.745,2.88741-.8503.49065-1.70829.9659-2.55089,1.46681-.65506.39048-1.27415.69875-1.978.06937-.43928-.39047-.79378.08221-1.14315.24147q-9.56777,4.42359-19.12011,8.89344c-1.11489.52148-2.16042,1.23819-3.50651.30826.71671,1.26131,1.43856,2.52264,2.14757,3.79166.69874,1.24847.59341,1.61581-.63707,2.35822-.21835.131-.43414.26973-.65506.39817a7.64362,7.64362,0,0,0-2.38649,1.44114c-.62424.822.56258,1.567.70644,2.44042a6.90966,6.90966,0,0,1-.05394,3.54761,8.60167,8.60167,0,0,0-.40332,3.14175c0,11.34155.02312,22.68055-.03082,34.02213-.00771,1.22791.375,1.43086,1.47967,1.41545,4.19239-.06167,8.38736-.0257,12.58233-.0257,3.52963.00257,5.00158,1.883,4.11019,5.28674a2.78414,2.78414,0,0,0,1.33839.10019q19.25881.01155,38.52021.0077c.34167,0,.6859-.02056,1.025.00771A.99262.99262,0,0,1,171.57972,279.77959Z"/><path class="cls-2" d="M179.28633,279.67941a.984.984,0,0,1-1.01728,1.06864c-.46239.03854-.9325.00772-1.4.00772v-.01541a13.13271,13.13271,0,0,1-1.52591-.01286.95052.95052,0,0,1-.88112-.93763.9331.9331,0,0,1,.894-1.04553,28.54344,28.54344,0,0,1,2.9285-.02056A.96151.96151,0,0,1,179.28633,279.67941Z"/><path class="cls-2" d="M187.75589,279.76674c-.02311.70644-.53945,1.00187-1.22791.99416-.55231-.00513-1.10718,0-1.6595,0-.59341-.00258-1.18939.00514-1.78537-.00258-.69615-.01027-1.1791-.34422-1.16626-1.0558a.99083.99083,0,0,1,1.10461-.989c1.18939-.01284,2.37878-.01028,3.57074-.00257C187.28578,278.71608,187.779,279.05518,187.75589,279.76674Z"/><path class="cls-3" d="M171.57972,279.77959a.98335.98335,0,0,1-1.00187.96846c-.34166.03083-.68588.01285-1.02755.01285-45.54094,0-63.76787,0-109.30626-.00513-.822,0-1.97289.2466-1.996-.98131-.02313-1.34609,1.18937-1.06095,2.03968-1.06095,15.79342-.00771,4.27538-.00514,20.06879-.00514h1.49c-.91966-3.50907.55744-5.39206,4.0845-5.39463,4.11019,0,8.21782-.01284,12.328.01541.68847.00515.94791-.131.94791-.894q-.03852-18.10282-.02054-36.20567a2.03,2.03,0,0,0-.07707-.37506,1.59814,1.59814,0,0,0-.38019.07706c-2.54832,1.305-2.54575,1.305-3.93809-1.1226-.55229-.96332-1.18937-1.88554-1.64921-2.8874-.40331-.87341-.84-.83489-1.567-.43157-1.67491.92993-3.38577,1.79306-5.08124,2.6819-.41615.21835-.89139.58057-1.31012.40074-1.22021-.52661-2.109.21579-3.07237.6602-3.09292,1.43087-6.17556,2.88741-9.26335,4.32855-1.43086.67048-1.80078.60112-2.54062-.81947-.429-.822-.8169-.92479-1.51305-.37505a6.44491,6.44491,0,0,1-1.10463.63965c-.64992.3288-1.18682.60625-.62936,1.51307a1.06158,1.06158,0,0,1-.51892,1.51819q-1.77636,1.01729-3.545,2.0474a1.161,1.161,0,0,1-1.75454-.45212c-1.9318-3.31643-3.83018-6.65339-5.74656-9.98008a1.14519,1.14519,0,0,1,.43671-1.74426c1.16883-.70644,2.36079-1.37178,3.545-2.05252a1.12141,1.12141,0,0,1,1.73141.465c.34681.68074.70644.54975,1.18169.21322.20808-.149.44441-.25176.6679-.3802,1.51307-.88112,1.52591-.88626.81947-2.50978-.3879-.88626-.03339-1.42316.7013-1.91895,3.2188-2.1784,6.41705-4.39019,9.62557-6.58145.48808-.33395.97874-.52919.64222-1.3615-.32883-.81177.35963-1.29215,1.007-1.70316q7.94552-5.03628,15.873-10.09566c2.87457-1.83932,5.726-3.71717,8.59288-5.56931.49322-.31856.989-.46754.73214-1.33069-.22606-.76038.614-1.13287,1.16883-1.513q8.91654-6.14219,17.84851-12.26379c.52919-.3648.99673-.64222.98131-1.46169-.01541-.76039,4.5315-3.39606,5.26619-3.16485.68588.21834.9402.85286,1.21764,1.41545a3.19487,3.19487,0,0,0,2.76668,1.94976,14.38574,14.38574,0,0,1,11.23881,19.4926,3.32723,3.32723,0,0,0,.30056,3.37807c1.043,1.65435.9325,1.92151-.745,2.88741-.8503.49065-1.70829.9659-2.55089,1.46681-.65506.39048-1.27415.69875-1.978.06937-.43928-.39047-.79378.08221-1.14315.24147q-9.56777,4.42359-19.12011,8.89344c-1.11489.52148-2.16042,1.23819-3.50651.30826.71671,1.26131,1.43856,2.52264,2.14757,3.79166.69874,1.24847.59341,1.61581-.63707,2.35822-.21835.131-.43414.26973-.65506.39817a7.64362,7.64362,0,0,0-2.38649,1.44114c-.62424.822.56258,1.567.70644,2.44042a6.90966,6.90966,0,0,1-.05394,3.54761,8.60167,8.60167,0,0,0-.40332,3.14175c0,11.34155.02312,22.68055-.03082,34.02213-.00771,1.22791.375,1.43086,1.47967,1.41545,4.19239-.06167,8.38736-.0257,12.58233-.0257,3.52963.00257,5.00158,1.883,4.11019,5.28674a2.78414,2.78414,0,0,0,1.33839.10019q19.25881.01155,38.52021.0077c.34167,0,.6859-.02056,1.025.00771A.99262.99262,0,0,1,171.57972,279.77959Z"/><path class="cls-4" d="M187.75589,279.76674c-.02311.70644-.53945,1.00187-1.22791.99416-.55231-.00513-1.10718,0-1.6595,0-.59341-.00258-1.18939.00514-1.78537-.00258-.69615-.01027-1.1791-.34422-1.16626-1.0558a.99083.99083,0,0,1,1.10461-.989c1.18939-.01284,2.37878-.01028,3.57074-.00257C187.28578,278.71608,187.779,279.05518,187.75589,279.76674Z"/><path class="cls-5" d="M179.28633,279.67941a.984.984,0,0,1-1.01728,1.06864c-.46239.03854-.9325.00772-1.4.00772v-.01541a13.13271,13.13271,0,0,1-1.52591-.01286.95052.95052,0,0,1-.88112-.93763.9331.9331,0,0,1,.894-1.04553,28.54344,28.54344,0,0,1,2.9285-.02056A.96151.96151,0,0,1,179.28633,279.67941Z"/><path class="cls-6" d="M110.4885,212.1883c-2.37273-4.08785-4.733-8.183-7.132-12.25544-.35037-.59479-.20117-.87753.30473-1.22189q8.55714-5.82486,17.09741-11.67453c.80756-.33122.93176.41191,1.17926.82027,1.68391,2.77833,3.28544,5.60571,4.91431,8.41654,2.40052,4.14245,4.8626,8.24941,7.19846,12.42912.233.41692.70651.81179.30123,1.38049l-4.56451,2.12913c-4.6528,1.58751-9.44329,1.56841-14.26132,1.21815-1.146-.08331-2.29372-.13821-3.43134-.33069A2.15545,2.15545,0,0,1,110.4885,212.1883Z"/><path class="cls-6" d="M85.57685,223.74443q-2.24269-3.86976-4.48319-7.74079c-.22077-.38237-.59844-.73025.05686-1.14411q7.99554-5.04963,15.96319-10.14344a16.73722,16.73722,0,0,1,2.53542,3.95408q3.4263,5.775,6.77028,11.59972c.24709.42856.65637.8191.44917,1.39926l-5.08766,2.60491a27.70556,27.70556,0,0,1-9.98612.74531c-1.48164-.1435-2.97779-.129-4.4467-.413C86.6793,224.477,85.9829,224.41082,85.57685,223.74443Z"/><path class="cls-6" d="M109.699,249.75068c.00627,7.51906.00271,15.03816.03394,22.55712.00315.7583-.162,1.0465-.98445,1.02587q-3.3946-.08515-6.7925,0c-.82193.0206-.988-.2667-.9848-1.02551.03123-7.519.02757-15.03807.03379-22.55713.49162-.216.67354.23323.9422.45822,2.31537,1.939,4.49439,1.93912,6.80942.00032C109.02537,249.98441,109.20745,249.5357,109.699,249.75068Z"/><path class="cls-6" d="M105.69291,278.7069q-10.3238,0-20.64757-.001c-1.35118-.00042-1.98722-.54211-2.03332-1.71183a2.03209,2.03209,0,0,1,1.92933-2.13255c.16967-.01562.34177-.00606.51276-.00606q20.26286-.00031,40.52568-.0087a2.311,2.311,0,0,1,2.05289.80086,1.98131,1.98131,0,0,1,.22027,2.16573,1.56488,1.56488,0,0,1-1.656.90585C119.629,278.69817,112.66093,278.70687,105.69291,278.7069Z"/><path class="cls-7" d="M109.699,249.75068c-1.65839,1.75661-3.5442,2.77772-6.04288,1.93009a7.7761,7.7761,0,0,1-2.65109-1.92991,15.35084,15.35084,0,0,1-1.05129-6.97122c.02628-1.72936.00514-3.45943.00514-5.409,3.33364,2.97239,6.66763,3.14886,10.27276.53358,0,2.27063.04393,4.34188-.016,6.41013-.03779,1.3042.57963,2.56865.08306,3.91792C110.11105,248.74207,109.70221,249.17284,109.699,249.75068Z"/><path class="cls-6" d="M68.881,232.72815c-.94145-1.617-1.86173-3.24683-2.83564-4.844-.34739-.56969-.243-.86615.2954-1.22484,2.83176-1.88653,5.64015-3.80813,8.45666-5.71755,1.19394.167,1.35739,1.04324,1.38681,2.01194-1.33379.92456-2.92288,1.38456-4.25023,2.328-1.23455.8775-2.66369,1.50939-3.50249,2.93331,3.02885-.881,6.18818-1.45838,8.42894-4.01987.58449.00458.761.47666.99093.87634,1.27629,2.21825,2.53534,4.44639,3.81216,6.66438.26077.453.70173.91237.32017,1.51963l.01888.02054c-2.79362.91365-5.66453.66984-8.52022.52539-.80681-.04081-1.62191-.1008-2.42556-.2038C70.26889,233.49667,69.40129,233.52619,68.881,232.72815Z"/><path class="cls-8" d="M140.35039,207.85225c.06466.34264-.21086.4035-.41169.54686-2.16388,1.54462-2.16662,1.54965-3.47675-.72105-4.30648-7.46389-8.59154-14.94026-12.93792-22.38083-.5018-.859-.37041-1.17748.4474-1.62106,1.85622-1.00678,1.83293-1.04887,2.89177.78682q6.52159,11.3064,13.0434,22.61268C140.05567,207.33411,140.2027,207.59371,140.35039,207.85225Z"/><path class="cls-9" d="M139.79652,203.36446l-10.197-17.68343a12.61975,12.61975,0,0,1,8.96894,5.48457C141.07589,194.878,141.43465,198.87251,139.79652,203.36446Z"/><path class="cls-10" d="M110.4885,212.1883a5.99164,5.99164,0,0,0,3.19183.73107,48.01829,48.01829,0,0,0,15.46921-.69391,3.20656,3.20656,0,0,1,.63768-.0134c-3.44137,1.87863-7.07737,3.35236-10.59139,5.08057-1.301.63984-2.63125,1.21994-3.94255,1.83914-.42817.20218-.76212.28894-1.03878-.25214C113.05181,216.60565,111.54675,214.52144,110.4885,212.1883Z"/><path class="cls-11" d="M109.52826,227.58513c-.3017-.17481-.59061-.34958-.88614-.51234a6.76845,6.76845,0,0,0-9.83241,4.144,6.35172,6.35172,0,0,0-.15559,1.90073,1.30736,1.30736,0,0,1-.71059,1.23452c-.71234.4921-1.18287.46625-1.59893-.382a29.35515,29.35515,0,0,0-1.70536-3.003c-.39136-.60525-.239-.8693.34582-1.1675q7.63936-3.89516,15.255-7.83664c.701-.36354,1.0316-.18345,1.41483.45914,1.8257,3.06133,1.84333,3.051-1.31676,4.7367C110.07649,227.29833,109.81336,227.43511,109.52826,227.58513Z"/><path class="cls-10" d="M85.57685,223.74443a14.138,14.138,0,0,0,4.23663.77225,42.43182,42.43182,0,0,0,10.94435-.23516,7.13505,7.13505,0,0,1,1.023-.00741Q96.008,227.41733,90.23617,230.563c-.36237.19777-.68191.35474-.94769-.13895C88.081,228.18105,86.60406,226.08775,85.57685,223.74443Z"/><path class="cls-8" d="M87.87414,231.32756a8.45759,8.45759,0,0,1-1.83634,1.03586c-.4634.27786-.59183-.10733-.75781-.39474-2.66081-4.60722-5.34424-9.20169-7.96219-13.83316-.69326-1.22647.7877-1.08287,1.22214-1.59489.50337-.59327.76468-.08,1.0089.34359q3.98565,6.913,7.97715,13.82272C87.63222,230.891,87.73405,231.07754,87.87414,231.32756Z"/><path class="cls-12" d="M111.00694,219.41851c-1.62528.88822-1.62947.89063-2.51216-.639q-4.0502-7.01864-8.09423-14.04084c-.96861-1.68153-.966-1.683.8042-2.62453.46671.14271.60454.57306.81673.93689q4.29691,7.36775,8.56555,14.75191C110.868,218.28873,111.41464,218.73971,111.00694,219.41851Z"/><path class="cls-13" d="M110.38638,233.00319a5.03436,5.03436,0,1,1-4.96469-5.03982A5.12028,5.12028,0,0,1,110.38638,233.00319Z"/><path class="cls-14" d="M65.04821,240.45918c.01181.6767-.56534.74452-.93348.95518-1.77089,1.01328-1.386,1.25556-2.48188-.63389-1.28188-2.21025-2.51772-4.44849-3.85359-6.62547-.46961-.7653-.39408-1.127.38315-1.56328,1.80077-1.01086,1.77218-1.04008,2.83057.81133,1.18351,2.0703,2.3867,4.12934,3.57937,6.19441C64.74225,239.89164,64.90111,240.1922,65.04821,240.45918Z"/><path class="cls-15" d="M134.35195,210.08286a45.90337,45.90337,0,0,0-2.94425-5.33754q-4.91568-8.49279-9.87908-16.958c-.18709-.32082-.27736-.74242-.76984-.751,1.21849-.972,1.22232-.9742,1.97868.33658,4.06559,7.04572,8.11218,14.10251,12.21359,21.12731C135.4977,209.43655,135.39,209.87064,134.35195,210.08286Z"/><path class="cls-10" d="M68.881,232.72815c1.857.71105,3.83142.59175,5.75587.74536a50.0738,50.0738,0,0,0,7.36565-.19749c-3.12363,1.74519-6.44293,3.08462-9.64941,4.65788-.32276.15835-.52377.18177-.721-.17517A45.53672,45.53672,0,0,1,68.881,232.72815Z"/><path class="cls-16" d="M111.00694,219.41851c-1.14418-2.56832-2.72921-4.89029-4.10454-7.32927-1.88082-3.3354-3.79637-6.65121-5.69735-9.97526.64568-.84353,1.046-.61377,1.52487.22537q4.44283,7.78436,8.97491,15.51748C112.29562,218.86121,112.13118,219.29485,111.00694,219.41851Z"/><path class="cls-17" d="M68.74372,236.11643c.02376.30042-.251.361-.45059.5014-2.45661,1.7277-2.45527,1.72913-3.94159-.88546-.1686-.2966-.34038-.59144-.51279-.88586-1.48813-2.54107-1.43058-2.7027,1.3097-3.88786.296-.128.50607-.25731.726.13194.90186,1.59645,1.83174,3.177,2.74988,4.7643C68.66686,235.92846,68.69561,236.01,68.74372,236.11643Z"/><path class="cls-15" d="M106.86858,221.66915q-4.2298-7.246-8.45485-14.49466c-.46538-.80085-.868-1.63813-1.29986-2.45849.49133-.60335.87784-.67608,1.32412.104q4.49574,7.85822,9.05653,15.679C108.01883,221.39439,107.45974,221.486,106.86858,221.66915Z"/><path class="cls-15" d="M81.98367,233.2555A65.09259,65.09259,0,0,0,78.153,226.271a5.07623,5.07623,0,0,0-1.27105-2.01679,4.6327,4.6327,0,0,1-.794-1.31443,3.12585,3.12585,0,0,0-1.29052-1.9981c1.22377-.98209,1.22339-.98187,1.96649.30351q2.9651,5.129,5.93251,10.25656C83.43173,232.769,83.44082,232.76377,81.98367,233.2555Z"/><path class="cls-18" d="M122.56144,192.75485a2.53654,2.53654,0,0,1-1.46359,2.615c-4.27828,2.78842-9.10091,4.25714-13.9106,5.75534a3.87878,3.87878,0,0,1-1.02244.04888c-.88968.02339-.95931-.35772-.49166-1.00217A16.43581,16.43581,0,0,1,109.653,196.593a57.45639,57.45639,0,0,1,9.05339-5.306,9.86848,9.86848,0,0,1,1.3031-.53C121.90885,190.18593,122.55908,190.668,122.56144,192.75485Z"/><path class="cls-18" d="M98.68047,208.70243a3.63027,3.63027,0,0,1-1.71527,3.41134c-3.92786,2.51724-8.32583,3.89953-12.76595,5.16135-.35858.1019-.81242.14821-1.04781-.25152-.24472-.41559.1058-.73756.33606-1.01272a16.74837,16.74837,0,0,1,3.38688-2.92047,47.9248,47.9248,0,0,1,8.76051-5.02561,7.50791,7.50791,0,0,1,1.20727-.42408C98.14031,207.34387,98.69207,207.8059,98.68047,208.70243Z"/><path class="cls-19" d="M76.088,222.93982c.86471.07587.7394.7494.79384,1.31446a3.04665,3.04665,0,0,1-1.57387,1.77241,30.69841,30.69841,0,0,1-6.40256,2.54152c-.372.116-.93589.29151-1.153-.14441-.19194-.38532.30929-.65724.58038-.89159A23.05115,23.05115,0,0,1,76.088,222.93982Z"/><path class="cls-20" d="M136.20032,190.43927c-.00394.53525-.34324.52368-.70881.47927a4.4233,4.4233,0,0,1-2.70532-2.68478c-.05484-.36757-.07322-.67472.43052-.73582C134.18724,187.38022,136.30807,189.47232,136.20032,190.43927Z"/><path class="cls-21" d="M137.23422,192.94265c-.47285-.05236-.79463-.29953-.79243-.79337a.70524.70524,0,0,1,.711-.73732.71708.71708,0,0,1,.80046.77272C137.9551,192.61519,137.65668,192.85073,137.23422,192.94265Z"/><path class="cls-22" d="M109.20052,233.06641a3.72056,3.72056,0,1,1-3.71542-3.66176A3.82377,3.82377,0,0,1,109.20052,233.06641Z"/><path class="cls-23" d="M105.50456,236.07571a2.95017,2.95017,0,1,1,2.92626-2.942A2.95027,2.95027,0,0,1,105.50456,236.07571Z"/><path class="cls-24" d="M297.437,69.90182c-1.55093.76552-3.167,1.40866-4.76469,2.068-2.61593,1.07963-5.2444,2.12894-7.87628,3.169q-8.78038,3.46977-17.62451,6.77779c-2.13062.79294-4.2617,1.59591-6.42187,2.30581-.3043.1-.174.583.13292.48214,4.67051-1.53487,9.2576-3.3558,13.84645-5.11492,5.80574-2.22562,11.60162-4.48224,17.35479-6.84094,1.87848-.77014,3.7837-1.51592,5.60555-2.41517.28854-.14242.03548-.57381-.25236-.43173Z"/><path class="cls-24" d="M249.14507,124.48814a67.78221,67.78221,0,0,1,.42906-13.18748,94.74853,94.74853,0,0,1,2.462-10.51c.71813-2.66177,1.40819-5.33045,2.04011-8.01412.07369-.31294-.4083-.4465-.48214-.13292-1.83949,7.812-4.59808,15.47543-4.99551,23.5507-.136,2.76287-.07948,5.53174.04645,8.29383.01461.32042.51469.32222.5,0Z"/><path class="cls-24" d="M300.98489,190.807q-9.16155-5.88834-17.81065-12.51344c-2.87015-2.196-5.70175-4.44188-8.51751-6.707q-2.20638-1.77493-4.40258-3.56249a30.05156,30.05156,0,0,1-3.47507-3.14964c-2.29983-2.55515-4.02384-5.60859-6.11-8.33469-.19292-.2521-.6274-.00332-.43174.25236,1.88683,2.46567,3.492,5.14782,5.44352,7.56165,2.088,2.58264,4.84671,4.53946,7.41359,6.61214,5.55944,4.48908,11.17669,8.90914,16.99129,13.06505q5.231,3.73873,10.64676,7.20783c.27148.17449.52247-.25813.25235-.43174Z"/><path class="cls-24" d="M240.24263,189.80158c-.037-3.65968-.055-7.31988-.13061-10.979-.07677-3.71556-.22216-7.408-.01468-11.12082.16763-3,.39775-5.99645.64992-8.99036.027-.32062-.47315-.31883-.5,0-.36459,4.32862-.82035,8.71138-.79976,13.06089.017,3.58415.18258,7.16922.22353,10.7538.02771,2.42513.04708,4.85036.0716,7.27553a.25015.25015,0,0,0,.5,0Z"/><path class="cls-24" d="M168.31643,179.53788a249.88981,249.88981,0,0,1,27.17288-16.647,105.19673,105.19673,0,0,1,23.52522-8.73332,132.37734,132.37734,0,0,1,14.754-2.53037c.31562-.03751.3194-.538,0-.5a116.9875,116.9875,0,0,0-25.12616,5.53982,132.18088,132.18088,0,0,0-24.22579,11.84066c-5.56238,3.35642-10.98416,6.94156-16.35247,10.59849-.2644.18011-.01454.61355.25235.43174Z"/><path class="cls-25" d="M58.36451,244.35182c-.05522.74526-.11734,1.49051-.17251,2.24263-1.78031,2.30475-3.56063,4.60259-5.58244,7.22473-1.22816-2.89792-4.19494-4.57462-3.55384-7.99669,1.76869-1.07772,3.28274.08179,4.85794.5802,1.70093.53817,2.56983.19475,2.52645-1.81535-.07075-3.27836.28867-6.57487-.56823-9.80652-.22166-1.09428-.16358-2.54423-1.98155-1.31257a26.67167,26.67167,0,0,1-2.92529,1.63762c-2.44732,1.24093-3.416,2.87665-1.52008,5.34132l0,0c-.45153.91667-1.61378.48359-2.19373,1.15556l-.0008-.0003c-4.73639-1.923-8.45146-.27161-11.6132,3.31715l-.00257-.002c-3.07068,2.89127-4.49906,6.70029-5.86533,10.53-2.09774,4.34037-1.22829,8.14245,1.9735,11.61337a46.31745,46.31745,0,0,1,5.99644,7.62492c-3.43642.57274-6.54846,1.08337-9.67436,1.6009h-.00379l.00085-.00064c-.20141-1.43192-.75094-2.083-2.15545-1.01867-1.31728.99825-2.66506,1.95623-3.99881,2.9322a12.97336,12.97336,0,0,0,4.76335.03041c.00034-.04721.00961-.088.01314-.13292a.60266.60266,0,0,0,.09034.13553,4.06318,4.06318,0,0,0,.37952.43473c4.851.10348,9.70194.01377,14.56671.04831a3.1797,3.1797,0,0,0,1.62162-.54516c.483.00691.966.00691,1.44215.01381q4.161.01036,8.32878.02759a5.14753,5.14753,0,0,0-1.01434-1.00052,9.84259,9.84259,0,0,0-3.88492-1.5664c-.22082-.05522-.44854-.10353-.66936-.1587a.00675.00675,0,0,1-.00686-.00691c1.29036-4.24375,2.59451-8.4806,3.8642-12.73122,1.035-3.47779.36574-4.36106-3.2087-4.31966-3.30527.04141-6.56224.95917-9.89514.51753a5.86114,5.86114,0,0,0,1.58018-1.05573c-.23459.02068-.46922.03449-.70381.04826a2.34359,2.34359,0,0,1-.31744-.06208c.0759-.14492.16561-.28294.25531-.42091,4.53357-6.65889,4.9752-6.7072,10.69561-1.1524,3.10517,3.01547,3.40189,2.99479,5.72731-.76593,1.49738-2.429,2.89127-4.92,4.32656-7.37652.11039.00691.22082.00691.3243.00691.01381-.09662.02763-.19323.03453-.29671l-.02072-.0414c.79356-.80047,1.594-1.594,2.38755-2.38065.0828.0414.1587.08971.2415.13111,0-.11729,0-.24149-.00691-.36574C61.91128,241.97809,60.25521,242.57155,58.36451,244.35182Zm-12.41384,19.535a47.75985,47.75985,0,0,0-.47613,12.24133,2.3906,2.3906,0,0,0-.17937.207,2.32789,2.32789,0,0,0-.43473,1.07646,4.28072,4.28072,0,0,0-1.09718.3243c-.345.14492-.69.30362-1.042.42782,1.594-2.53934-.31052-4.65085-.98675-6.81754C40.03017,265.92245,39.91283,265.95694,45.95067,263.88682Z"/><path class="cls-25" d="M51.20877,258.32511a3.60509,3.60509,0,0,0,1.111.56584,3.95486,3.95486,0,0,0-2.49107-1.525C50.291,257.68338,50.75336,257.99391,51.20877,258.32511Z"/><path class="cls-26" d="M47.50438,325.77248l-9.30469,9.7002v17.5205h-15.936V283.70412h15.936v32.36816l30.68506-32.36816H86.70213L57.99656,314.58791l30.38819,38.40527h-18.708Z"/><path class="cls-26" d="M139.65428,352.99318l-13.3628-19.30175H111.543v19.30175H95.50779V283.70412h29.9917c18.51026,0,30.09131,9.60156,30.09131,25.14258,0,10.39258-5.24609,18.01465-14.25391,21.875l15.54053,22.27148Zm-15.04541-56.22265H111.543v24.15234h13.06592c9.79931,0,14.74853-4.55371,14.74853-12.07617C139.3574,301.22463,134.40818,296.77053,124.60887,296.77053Z"/><path class="cls-26" d="M168.25633,283.70412h16.03613v69.28906H168.25633Z"/><path class="cls-26" d="M200.12742,322.50588V283.70412h16.03516v38.208c0,13.165,5.74121,18.60937,15.4414,18.60937,9.79981,0,15.44141-5.44433,15.44141-18.60937v-38.208h15.83789v38.80176c0,20.39062-11.68066,31.6748-31.37793,31.6748C211.80711,354.18068,200.12742,342.8965,200.12742,322.50588Z"/><path class="cls-26" d="M273.272,346.16311l5.44434-12.07618a40.75215,40.75215,0,0,0,22.86523,7.22657c9.502,0,13.36231-3.168,13.36231-7.42383,0-12.9668-40.28613-4.0586-40.28613-29.79492,0-11.77832,9.50293-21.57813,29.20019-21.57813,8.71094,0,17.61914,2.0791,24.05274,6.13672l-4.94922,12.17578a39.124,39.124,0,0,0-19.20215-5.44434c-9.50293,0-13.165,3.56348-13.165,7.91895,0,12.76855,40.28613,3.959,40.28613,29.39746,0,11.58106-9.60156,21.47949-29.39844,21.47949C290.49559,354.18068,279.40867,350.91408,273.272,346.16311Z"/><path class="cls-27" d="M260.014,155.79v-20.436l6.12171-2.73318v22.22094l-2.12642.94911-3.99529,1.78372Zm-12.87041-16.00221v22.2199l-13.93451-6.21821-2.12643-.94911V132.61945Zm1.46419-16.29744,15.39817,6.87472-3.28046,1.4646-2.16148.96378-2.04161-.96378-6.213-2.9292-6.71625-3.16925Zm-15.395,6.87472,3.28045-1.4646,3.57351-1.59625,3.37706,1.59625,6.213,2.9292,5.38081,2.53632-6.42978,2.87057-12.11406-5.40689Zm16.85974,31.64345V139.78865l7.01253-3.12846v22.22094Z"/><path class="cls-27" d="M245.07461,203.36108v-9.63537l2.88633-1.28867v10.477l-1.00259.44749-1.88374.841Zm-6.06829-7.54489v10.47648l-6.57-2.93183-1.00259-.4475v-10.477Zm.69035-7.6841,7.2601,3.24137-1.5467.69054-1.01912.45441-.9626-.45441-2.92938-1.38109-3.16665-1.49427Zm-7.25862,3.24137,1.54671-.69055,1.68487-.75262,1.59225.75262,2.92938,1.38109,2.537,1.19585-3.03159,1.35345L233.985,192.064Zm7.94922,14.9196V195.81658l3.30634-1.475v10.477Z"/><path class="cls-27" d="M310.01531,71.19789V61.56252l2.88633-1.28867v10.477l-1.00259.44749-1.88374.841ZM303.947,63.653V74.12948l-6.57-2.93183-1.00259-.4475v-10.477Zm.69035-7.6841,7.2601,3.24137-1.54671.69054-1.01912.45442-.9626-.45442-2.92937-1.38109L302.273,57.02545Zm-7.25863,3.24137,1.54671-.69055,1.68488-.75262,1.59225.75262,2.92937,1.38109,2.537,1.19586-3.03158,1.35344-5.71167-2.5493Zm7.94922,14.9196V63.65339l3.30635-1.475v10.477Z"/><path class="cls-27" d="M307.783,196.26432v-6.46491l1.9366-.86464v7.02959l-.67269.30025-1.26391.56428Zm-4.07155-5.06229v7.02926l-4.40818-1.96713-.67269-.30025v-7.02959Zm.46319-5.15569,4.87121,2.17481-1.03777.46333-.68379.30489-.64586-.30489-1.96548-.92665-2.12468-1.00259Zm-4.87021,2.17481,1.03777-.46332,1.13047-.505,1.06834.505,1.96548.92665,1.70221.80236-2.03406.90811-3.83228-1.71047Zm5.33357,10.0104v-7.02926l2.21841-.98969v7.02959Z"/><path class="cls-27" d="M167.5227,185.76v-6.46491l1.9366-.86464v7.02959l-.6727.30024-1.2639.56429Zm-4.07155-5.0623V187.727l-4.40818-1.96713-.6727-.30025V178.43Zm.46319-5.15569,4.87121,2.17482-1.03778.46332-.68378.30489-.64586-.30489-1.96548-.92665-2.12469-1.00259Zm-4.87022,2.17482,1.03777-.46333,1.13048-.505,1.06833.505,1.96548.92665,1.70222.80237-2.03406.9081-3.83228-1.71047Zm5.33358,10.0104V180.698l2.21841-.98969v7.02959Z"/><path class="cls-27" d="M259.22494,91.341V84.87611l1.9366-.86464v7.02959l-.6727.30025-1.2639.56428Zm-4.07155-5.06229V93.308l-4.40818-1.96713-.6727-.30025V84.011Zm.46319-5.15569,4.87121,2.17481-1.03778.46333-.68378.30489-.64586-.30489-1.96548-.92665-2.12469-1.00259Zm-4.87022,2.17481,1.03777-.46332,1.13048-.505,1.06833.505,1.96548.92665,1.70222.80236-2.03406.90811-3.83228-1.71047Zm5.33358,10.0104V86.279l2.21841-.98968v7.02958Z"/></svg>